<?xml version="1.0" encoding="UTF-8"?>
<svg version="1.1" xmlns="http://www.w3.org/2000/svg" width="438" height="383">
<path d="M0 0 C10.4071682 8.72033341 17.96933367 19.32045281 19.18645263 33.11288774 C19.33989071 35.57563097 19.46016543 38.0376068 19.56613159 40.50285339 C19.60741302 41.42382944 19.64869446 42.34480549 19.69122684 43.29368991 C20.11662279 53.57610575 20.14065986 63.85230488 20.12939453 74.1418457 C20.13075402 76.26673919 20.13253699 78.39163245 20.13470459 80.51652527 C20.13921251 86.21865947 20.13751744 91.92077532 20.1343255 97.62290978 C20.13176886 103.62647054 20.1341484 109.63002987 20.13571167 115.6335907 C20.1375231 125.70405353 20.13515338 135.77450899 20.13037109 145.8449707 C20.12492305 157.45066521 20.12669922 169.05634216 20.1321975 180.66203624 C20.13674913 190.67451798 20.13736938 200.68699446 20.13475883 210.6994769 C20.13320827 216.65881366 20.13296872 222.61814219 20.13629532 228.57747841 C20.13920421 234.17796836 20.13714339 239.77843586 20.13140106 245.37892342 C20.13008987 247.42178053 20.13043932 249.46463956 20.13266373 251.50749588 C20.17509513 294.46700039 20.17509513 294.46700039 7 310 C6.40445313 310.73089844 5.80890625 311.46179688 5.1953125 312.21484375 C-4.85249516 323.44855146 -20.7973994 328.00957654 -35.40625 328.99609375 C-42.89280009 329.00736867 -49.2220814 326.79390626 -55 322 C-58.65604912 318.02845426 -60.39245452 314.14849024 -62 309 C-62.92039062 308.85304688 -63.84078125 308.70609375 -64.7890625 308.5546875 C-86.50423343 304.70698919 -104.71533282 293.99804264 -117.8125 276 C-126.75065852 262.49856616 -131.3478938 248.00323771 -133 232 C-133.89976562 231.73316406 -134.79953125 231.46632812 -135.7265625 231.19140625 C-147.23186592 227.00391515 -155.50855757 216.018208 -160.69433594 205.37817383 C-163.28460943 199.7444049 -164.88516017 194.0825661 -166 188 C-166.13019531 187.30648437 -166.26039063 186.61296875 -166.39453125 185.8984375 C-166.69877184 183.92695849 -166.87672777 181.99103328 -167 180 C-167.05285156 179.17886719 -167.10570312 178.35773438 -167.16015625 177.51171875 C-167.80499236 157.24143583 -162.47366798 134.67046168 -149 119 C-147.515 118.505 -147.515 118.505 -146 118 C-145.31513275 116.67592331 -144.65129797 115.34090759 -144 114 C-143.32839844 113.49855469 -142.65679687 112.99710937 -141.96484375 112.48046875 C-138.93342628 108.6535302 -139.49581553 104.86893369 -139.5 100.125 C-139.03156018 81.48778732 -132.5468958 64.13328493 -120 50 C-119.34 50 -118.68 50 -118 50 C-117.77699219 49.43796875 -117.55398437 48.8759375 -117.32421875 48.296875 C-111.49558166 38.18702659 -96.48349631 30.26305043 -85.58984375 26.96875 C-84.54957031 26.6903125 -83.50929688 26.411875 -82.4375 26.125 C-77.92717992 24.75203207 -76.11874919 23.46474392 -73.75 19.375 C-73.08871094 18.06402344 -73.08871094 18.06402344 -72.4140625 16.7265625 C-66.17649508 4.69942974 -55.47504555 -3.37691077 -42.8203125 -7.75390625 C-28.1065351 -11.60751462 -12.41132453 -8.63159466 0 0 Z M-57.59375 21.01171875 C-59.4664514 23.82648031 -60.83974853 26.16226262 -61.48046875 29.51171875 C-62.20353693 32.75824636 -62.8064365 34.4544361 -65 37 C-69.72731442 39.2319788 -74.90057237 40.29363221 -79.94140625 41.59765625 C-95.13787072 45.58935429 -108.15760301 57.6976653 -116.34765625 70.83984375 C-120.91439459 79.57386578 -124.18197201 88.89632355 -124.0625 98.8125 C-124.04166667 100.54166667 -124.02083333 102.27083333 -124 104 C-123.43361816 103.86070068 -122.86723633 103.72140137 -122.28369141 103.57788086 C-111.87793765 101.33757394 -101.33043145 101.61919828 -90.73730469 101.54370117 C-88.16570187 101.52189574 -85.59479465 101.48248169 -83.0234375 101.44140625 C-82.25131927 101.44129044 -81.47920105 101.44117462 -80.6836853 101.4410553 C-74.49164227 101.33013466 -67.54171722 100.54171722 -63 96 C-62.51318262 94.4101051 -62.08222495 92.80272418 -61.6875 91.1875 C-60.16825445 85.87014058 -57.98263384 82.84298117 -53.2109375 79.89453125 C-50.39864554 78.75669581 -48.09134865 78.69895844 -45.0625 78.6875 C-44.04285156 78.67074219 -43.02320313 78.65398437 -41.97265625 78.63671875 C-37.0664926 79.23628934 -34.59415205 81.35057799 -31.3125 84.9375 C-29.51307091 87.32052772 -28.25734911 89.34176877 -27 92 C-22.74585377 92.02465622 -18.49174502 92.04283899 -14.23754883 92.05493164 C-12.78929927 92.05997101 -11.34105483 92.06680253 -9.89282227 92.07543945 C-7.81525412 92.08752247 -5.73775303 92.09323211 -3.66015625 92.09765625 C-2.40855713 92.10289307 -1.15695801 92.10812988 0.13256836 92.11352539 C2.89732294 92.32887035 2.89732294 92.32887035 4 91 C4.1146683 89.24836293 4.15963497 87.49211685 4.17700195 85.73681641 C4.18983719 84.61119293 4.20267242 83.48556946 4.21589661 82.32583618 C4.22328354 81.09682587 4.23067047 79.86781555 4.23828125 78.6015625 C4.25038887 76.71176163 4.25038887 76.71176163 4.26274109 74.78378296 C4.27661003 72.10532944 4.28761544 69.42700011 4.29516602 66.74853516 C4.30614431 63.34486082 4.34042942 59.94185602 4.38033772 56.53841591 C4.41307638 53.26786551 4.41730944 49.99725173 4.42578125 46.7265625 C4.45204338 44.91341049 4.45204338 44.91341049 4.47883606 43.06362915 C4.45022475 31.74704529 1.95022148 23.06975965 -6 14.87109375 C-12.69658079 8.60612852 -20.33494587 5.93960581 -29.4375 5.5625 C-41.47952965 6.00347573 -50.20338292 11.68319167 -57.59375 21.01171875 Z M-7.17578125 98.12109375 C-8.91118164 98.19360352 -8.91118164 98.19360352 -10.68164062 98.26757812 C-11.87982422 98.32365234 -13.07800781 98.37972656 -14.3125 98.4375 C-15.53001953 98.48970703 -16.74753906 98.54191406 -18.00195312 98.59570312 C-21.00157979 98.72509879 -24.00085006 98.86005448 -27 99 C-27.38853149 99.82383179 -27.38853149 99.82383179 -27.78491211 100.66430664 C-28.13303955 101.38481201 -28.48116699 102.10531738 -28.83984375 102.84765625 C-29.18136475 103.56187744 -29.52288574 104.27609863 -29.87475586 105.01196289 C-32.04079865 108.83884213 -34.9217343 110.6405781 -39 112 C-40.8096818 112.11880354 -42.62396447 112.1751965 -44.4375 112.1875 C-45.85869141 112.20876953 -45.85869141 112.20876953 -47.30859375 112.23046875 C-50 112 -50 112 -52.03515625 110.92578125 C-56.17525887 108.97507683 -61.08970459 111.68187311 -65.19140625 113.03125 C-74.51136719 115.72290039 -83.62581296 115.52924983 -93.2565918 115.49072266 C-109.8218951 115.47322841 -124.89347063 117.63797049 -137.75 129.125 C-146.11776853 138.04666337 -149 149.13539459 -149 161 C-131.84 161 -114.68 161 -97 161 C-93.8509288 155.81989159 -93.8509288 155.81989159 -94 153 C-92.66666667 152.33333333 -91.33333333 151.66666667 -90 151 C-89.0925 150.46375 -88.185 149.9275 -87.25 149.375 C-83.38974695 147.74181602 -80.09970291 147.25603847 -76 148 C-73.46148171 149.12261167 -71.34697011 150.48137228 -69 152 C-67.515 152.495 -67.515 152.495 -66 153 C-64.875 155.4375 -64.875 155.4375 -64 158 C-63.67 158.66 -63.34 159.32 -63 160 C-54.55935696 159.93886178 -46.11907508 159.86180951 -37.67878151 159.76428509 C-33.75983347 159.71950652 -29.84099119 159.6802674 -25.921875 159.65356445 C-22.1415598 159.62760545 -18.36164996 159.58725694 -14.58158493 159.53681374 C-13.13750617 159.52009458 -11.69335722 159.50861182 -10.2491951 159.50238609 C-8.2306338 159.49280059 -6.21219819 159.46307672 -4.19384766 159.43237305 C-2.46843246 159.41571846 -2.46843246 159.41571846 -0.7081604 159.39872742 C0.18553253 159.26714737 1.07922546 159.13556732 2 159 C4.27121709 155.59317436 4.24468887 154.42202816 4.22705078 150.42700195 C4.22689972 149.28604568 4.22674866 148.14508942 4.22659302 146.96955872 C4.21627045 145.73823715 4.20594788 144.50691559 4.1953125 143.23828125 C4.1924826 141.97735153 4.18965271 140.71642181 4.18673706 139.4172821 C4.17743125 136.06839578 4.15946703 132.71978209 4.1373291 129.37097168 C4.11685386 125.95241653 4.10773176 122.5338332 4.09765625 119.11523438 C4.0755818 112.41008081 4.04209362 105.70505615 4 99 C0.13715033 98.16808425 -3.21872339 97.94565769 -7.17578125 98.12109375 Z M-62 167 C-62.64834654 168.269553 -63.29357815 169.54069706 -63.9375 170.8125 C-64.29714844 171.52019531 -64.65679687 172.22789062 -65.02734375 172.95703125 C-66.10730516 175.11810285 -66.10730516 175.11810285 -67 178 C-69.25 179.0625 -69.25 179.0625 -72 180 C-72.78375 180.37125 -73.5675 180.7425 -74.375 181.125 C-79.34764343 182.78254781 -83.44758105 182.48946199 -88.1875 180.375 C-93.37707433 177.54432309 -95.4576537 173.12890732 -98 168 C-105.22649432 167.92412542 -112.45288649 167.87147449 -119.6796875 167.83520508 C-122.13968748 167.82009012 -124.59966041 167.79959773 -127.05957031 167.77368164 C-130.58926052 167.7374177 -134.11859544 167.72030086 -137.6484375 167.70703125 C-138.75367767 167.69154739 -139.85891785 167.67606354 -140.99765015 167.66011047 C-142.52901108 167.65977058 -142.52901108 167.65977058 -144.09130859 167.65942383 C-145.44366104 167.64943108 -145.44366104 167.64943108 -146.82333374 167.63923645 C-147.54163361 167.75828842 -148.25993347 167.87734039 -149 168 C-152.94686055 173.92029082 -151.62614159 182.75544813 -150.3125 189.5625 C-146.08084861 204.5143349 -137.28416313 213.56770294 -124 221 C-123.0925 221.43054688 -122.185 221.86109375 -121.25 222.3046875 C-119 224 -119 224 -118.3203125 226.6171875 C-118.25585938 227.69226563 -118.19140625 228.76734375 -118.125 229.875 C-116.45387448 244.79134258 -111.40670778 259.22706882 -102 271 C-101.26330078 272.00353516 -101.26330078 272.00353516 -100.51171875 273.02734375 C-91.34610656 284.82645578 -75.3893659 291.58766513 -61 294 C-57.17634815 294.2708939 -54.88964321 293.93040842 -51.71875 291.7265625 C-48.02849695 288.27433425 -47.46151224 285.30464951 -47.19140625 280.46893311 C-47.14277602 276.9997236 -47.22588484 273.54968802 -47.38427734 270.08398438 C-47.50003171 267.3742578 -47.52964802 264.67287117 -47.55078125 261.9609375 C-47.60163257 260.2316121 -47.65745323 258.50242417 -47.71875 256.7734375 C-47.72442993 255.96812592 -47.73010986 255.16281433 -47.73596191 254.33309937 C-47.94548768 250.8230763 -48.14022933 248.79239098 -50.79516602 246.34552002 C-54.61319611 243.80563034 -54.61319611 243.80563034 -59 243 C-61.54144151 236.73111093 -62.63250883 231.77838624 -62 225 C-60.5 221.5 -60.5 221.5 -59 219 C-59 218.34 -59 217.68 -59 217 C-57.33333333 216.33333333 -55.66666667 215.66666667 -54 215 C-53.21625 214.62875 -52.4325 214.2575 -51.625 213.875 C-46.67237479 212.22412493 -42.58852724 212.49459221 -37.875 214.625 C-33.93373087 216.82904953 -31.38969103 219.08959649 -29 223 C-27.69918652 227.88815002 -27.69733562 231.86500856 -29 236.75 C-31.9677352 241.57256971 -35.57184374 245.19061458 -41 247 C-41 259.87 -41 272.74 -41 286 C-38.03 286.99 -35.06 287.98 -32 289 C-26.82304208 292.4187458 -24.01781876 296.22122063 -22 302 C-21.45287865 304.69882548 -21.19690291 307.24335927 -21 310 C-12.81662979 308.75095928 -6.65422455 303.39422144 -1.50390625 297.14453125 C4.15169061 289.07979702 5.15371775 280.87361087 5.12939453 271.2668457 C5.13114685 270.40891418 5.13289917 269.55098267 5.13470459 268.66705322 C5.13909638 265.83660848 5.13619111 263.00622661 5.1328125 260.17578125 C5.13348711 258.18963102 5.13445844 256.20348088 5.13571167 254.21733093 C5.1371857 250.04876929 5.13504649 245.88022907 5.13037109 241.71166992 C5.12472228 236.42256329 5.1279236 231.13350795 5.13394356 225.84440327 C5.13759864 221.73546479 5.13638735 217.62653798 5.13381577 213.51759911 C5.13315756 211.57116884 5.13393531 209.62473744 5.13629532 207.67830849 C5.14554155 197.89510219 5.06369777 188.1171067 4.67919922 178.34057617 C4.65723543 177.54237866 4.63527164 176.74418116 4.61264229 175.92179585 C4.47327679 172.97826014 4.33691822 170.58103686 2.84028625 168 C0.13350012 166.5291494 -2.05199751 166.64102993 -5.1237793 166.65942383 C-6.38486008 166.65965042 -7.64594086 166.65987701 -8.94523621 166.66011047 C-10.32156732 166.67543037 -11.69789482 166.69107836 -13.07421875 166.70703125 C-14.48240202 166.7126274 -15.89059114 166.71689741 -17.29878235 166.71989441 C-21.00281944 166.73134182 -24.7065029 166.76080765 -28.41040039 166.79400635 C-32.19086931 166.82470974 -35.97139543 166.83840029 -39.75195312 166.85351562 C-47.16812986 166.88567784 -54.58401536 166.93687245 -62 167 Z " fill="#82CA89" transform="translate(203,19)"/>
<path d="M0 0 C3.1419468 2.05924892 5.55641012 4.13247402 7.29492188 7.5324707 C9.53045318 10.76765325 11.20519406 11.10299737 14.96875 12.10546875 C16.17096191 12.44384766 17.37317383 12.78222656 18.61181641 13.13085938 C19.2467804 13.30254639 19.88174438 13.4742334 20.53594971 13.65112305 C43.42219009 19.90129491 62.66569416 29.42761776 77 49 C77.54269531 49.72058594 78.08539063 50.44117188 78.64453125 51.18359375 C85.94380353 61.98805746 90.24613076 76.93867977 91.515625 89.8203125 C92.46852102 94.10834457 96.08442665 95.81372814 99.5625 98.125 C114.95440924 108.82753747 124.81801256 121.39066454 128.3125 140.125 C129.84774008 151.29569922 128.9897957 162.32390553 126.46875 173.31640625 C125.34185599 178.67998833 127.06163597 181.59907197 129.58984375 186.1484375 C138.22624129 203.6126209 137.90590621 224.00353671 131.96875 242.15234375 C129.11210885 249.65102677 124.9717644 255.74328656 120 262 C119.34773437 262.85722656 118.69546875 263.71445312 118.0234375 264.59765625 C114.83856923 268.37891877 110.94786227 271.06284474 107 274 C106.45601562 274.44472656 105.91203125 274.88945312 105.3515625 275.34765625 C98.05861668 281.10427085 88.8248194 284.50790594 79.8125 286.375 C77.18089322 286.96933665 77.18089322 286.96933665 75 288 C73.39182796 290.9483154 72.75395886 292.83133508 72 296 C67.32363328 309.76078403 59.86765094 319.14443144 47 326 C46.14792969 326.47179687 45.29585938 326.94359375 44.41796875 327.4296875 C36.63842581 331.37194464 28.53413465 332.68293781 20 334 C19.74992187 335.07636719 19.49984375 336.15273438 19.2421875 337.26171875 C17.97974615 341.06095262 17.16367045 342.36436362 14.125 344.8125 C13.44695312 345.37582031 12.76890625 345.93914062 12.0703125 346.51953125 C6.77285778 350.30771114 2.41852716 350.74431716 -4 350 C-10.02509946 348.41947215 -13.74534994 344.90524026 -16.9296875 339.6328125 C-19.13551459 334.20679988 -19.1184085 328.41114592 -17.296875 322.85546875 C-14.60236776 317.61488052 -10.44645663 314.22322832 -5.25 311.625 C0.72659227 310.47565533 5.99132531 310.92126729 11.375 313.8125 C14 316 14 316 15.8125 318.25 C19.29587211 321.03669769 22.71118665 320.4510772 27 320 C36.88698718 318.49181552 48.47019832 313.38506135 54.6015625 305.27734375 C60.20754731 296.14804446 62.39611986 287.72533202 61 277 C59.66676435 272.18843448 57.84344899 269.67131654 53.9375 266.5625 C49.18159851 264.03276516 45.31456363 263.86612466 40.05078125 263.90234375 C38.89185616 263.90446617 38.89185616 263.90446617 37.70951843 263.90663147 C35.24380611 263.91222534 32.77818485 263.92477667 30.3125 263.9375 C28.63997527 263.94251579 26.96744912 263.94707856 25.29492188 263.95117188 C21.19657954 263.96219276 17.09830521 263.97945316 13 264 C12.74605469 264.54414551 12.49210937 265.08829102 12.23046875 265.64892578 C11.71419922 266.72376221 11.71419922 266.72376221 11.1875 267.8203125 C10.85105469 268.52945801 10.51460938 269.23860352 10.16796875 269.96923828 C7.67966336 274.29568566 3.56736122 277.10721967 -1 279 C-7.19105307 279.9317938 -12.59919952 279.79620677 -18 276.4375 C-23.23099005 272.38158743 -25.83657028 268.16807833 -26.9375 261.5625 C-27.3663659 255.4119354 -25.38170545 250.54137512 -21.6875 245.6875 C-17.03575841 241.03575841 -13.49915991 239.81780573 -7 239.625 C-1.05787043 239.81549984 2.60032503 240.60032503 6.91015625 244.91015625 C12 250.48571074 12 250.48571074 12 253 C13.55726807 252.97643433 13.55726807 252.97643433 15.14599609 252.95239258 C19.04109776 252.89760943 22.9361662 252.86347615 26.83154297 252.83520508 C28.50933583 252.82022766 30.18709028 252.79983846 31.86474609 252.77368164 C45.00057773 252.57417973 55.78779962 252.76152105 66 262 C70.53646775 266.41045476 72.06323631 272.1175954 74 278 C85.08150803 275.00499783 94.66589986 270.72923499 104 264 C104.928125 263.34 105.85625 262.68 106.8125 262 C116.84214302 253.33923214 124.25378437 240.13630397 126 227 C122.12318539 226.9061554 118.25272994 226.91290079 114.375 226.9375 C112.73337891 226.89592773 112.73337891 226.89592773 111.05859375 226.85351562 C104.9289495 226.82748536 104.9289495 226.82748536 99.98217773 230.00219727 C98.36794111 232.38877388 98.36794111 232.38877388 97.13989258 234.8671875 C96 237 96 237 93.3125 239.0625 C86.94378824 240.86496559 80.55944789 241.28600805 74.5625 238.125 C70.00959824 234.81805695 68.1696125 230.39504359 67 225 C66.72581169 219.81784098 68.20395726 215.33868701 71 211 C74.93204225 207.01409416 78.54951625 204.88444704 84.1875 204.625 C89.54837465 204.7207299 93.05133527 206.42692417 97 210 C97.86482144 211.53405429 98.69571252 213.08761092 99.49609375 214.65625 C101.38107452 217.57165934 102.25347199 218.79309581 105.63647461 219.73071289 C108.75955667 219.88598448 111.75649398 219.78717069 114.875 219.5625 C115.94492187 219.52189453 117.01484375 219.48128906 118.1171875 219.43945312 C120.74947927 219.3336914 123.37237237 219.18614218 126 219 C126.01702209 217.26696176 126.02906361 215.53387424 126.0390625 213.80078125 C126.04631348 212.83567627 126.05356445 211.87057129 126.06103516 210.8762207 C125.75354598 196.38610087 118.8885935 182.68099893 108.625 172.6875 C101.17422104 167.89771352 94.86539594 166.4010564 86.05078125 166.50390625 C84.52640694 166.5017234 84.52640694 166.5017234 82.97123718 166.49949646 C80.83748487 166.50114677 78.70371956 166.51260988 76.57006836 166.53344727 C73.31117167 166.56251185 70.05389378 166.55401521 66.79492188 166.54101562 C64.7135338 166.54725083 62.63215082 166.55564006 60.55078125 166.56640625 C59.09748161 166.56200279 59.09748161 166.56200279 57.61482239 166.55751038 C52.33221252 166.63102385 48.55821241 167.02624867 44 170 C42.08397108 172.04463774 42.08397108 172.04463774 40.5625 174.375 C35.86444506 180.72511821 30.9695245 184.67174592 23 186 C14.82268787 186.32759648 8.22355283 184.42928822 2 179 C-2.68386933 172.95476215 -5.48015331 167.02173299 -5.3359375 159.27734375 C-4.226766 151.75819274 0.20868929 145.95110717 6.03515625 141.33984375 C11.54761197 137.58085307 17.51187596 137.22303958 24 138 C30.32507531 139.74849021 34.26534346 143.99030881 38.53125 148.78125 C44.71205418 154.33614996 50.70451172 155.58633329 58.8359375 155.5390625 C59.75533112 155.55085541 60.67472473 155.56264832 61.62197876 155.57479858 C64.53982685 155.60985348 67.45695927 155.61920257 70.375 155.625 C73.28568279 155.64144454 76.19605338 155.66371756 79.1065979 155.69662476 C80.90971887 155.71596017 82.7129814 155.72562241 84.51620483 155.72354126 C95.87018044 155.81824338 106.15554992 158.14451 115.2734375 165.140625 C115.97645996 165.67719727 116.67948242 166.21376953 117.40380859 166.76660156 C117.93055176 167.17362305 118.45729492 167.58064453 119 168 C119.3446462 148.96227415 119.33762382 131.12815415 106 116 C105.21625 115.21625 104.4325 114.4325 103.625 113.625 C103.08875 113.08875 102.5525 112.5525 102 112 C102 111.34 102 110.68 102 110 C101.43410156 109.72929688 100.86820313 109.45859375 100.28515625 109.1796875 C97.90559407 107.95126395 95.69679964 106.56172102 93.4375 105.125 C82.12379133 98.27987153 71.43168597 96.76031175 58.4375 96.5625 C57.20580078 96.51673828 55.97410156 96.47097656 54.70507812 96.42382812 C51.3653066 96.38196723 48.28729113 96.40412779 45 97 C42.19652539 99.69317458 42.19652539 99.69317458 41 103 C35.29528063 108.02558612 31.71770181 108.3518708 24.20703125 108.27734375 C20.05782025 107.91852039 17.98001287 106.90360228 15 104 C10.86535922 98.52439465 9.11645098 93.88431946 10 87 C11.77046978 81.67896854 14.25815424 78.11963537 19 75 C23.41681271 72.79159365 29.19242534 73.57838566 34 74 C39.89715346 76.79338848 43.21069888 81.22565733 46 87 C46.589021 86.99476318 47.17804199 86.98952637 47.78491211 86.98413086 C50.50243017 86.96310197 53.21993101 86.95025854 55.9375 86.9375 C56.86369141 86.92912109 57.78988281 86.92074219 58.74414062 86.91210938 C64.58300303 86.89162214 70.20913053 87.24570213 76 88 C71.77087813 68.91737694 64.5024466 52.44824839 47.75 41.375 C39.76221536 36.51946741 31.56071516 33.04877936 22.6875 30.1875 C22.01759033 29.96819824 21.34768066 29.74889648 20.6574707 29.52294922 C16.68043629 28.29428805 13.15820922 27.52091533 9 28 C6.90356987 30.72689447 6.90356987 30.72689447 5 34 C0.26635035 38.74651283 -3.95691898 41.28793153 -10.6875 41.4375 C-16.88322922 41.30920841 -21.20689163 39.95952431 -26 36 C-31.84519608 29.66153843 -33.37054675 24.65280115 -33.27734375 16.078125 C-32.73479337 10.05657998 -30.41366069 6.44578934 -26.25 2.1875 C-17.70111246 -3.56655892 -9.3750166 -4.78278286 0 0 Z " fill="#05B7C9" transform="translate(277,12)"/>
<path d="M0 0 C0.33 0 0.66 0 1 0 C1.3125 2.1875 1.3125 2.1875 1 5 C-1.3125 7.625 -1.3125 7.625 -4 10 C-4.53625 10.5775 -5.0725 11.155 -5.625 11.75 C-8.49562047 14.35965497 -11.76502102 14.16258495 -15.4375 14.1875 C-16.85869141 14.20876953 -16.85869141 14.20876953 -18.30859375 14.23046875 C-21 14 -21 14 -23.03515625 12.92578125 C-27.17525887 10.97507683 -32.08970459 13.68187311 -36.19140625 15.03125 C-45.51136719 17.72290039 -54.62581296 17.52924983 -64.2565918 17.49072266 C-79.83788679 17.4742676 -95.23461256 18.99886028 -107.24609375 30.0703125 C-116.50062494 39.81728663 -117.41135686 48.19390323 -120 62 C-102.84 62 -85.68 62 -68 62 C-67.67 60.68 -67.34 59.36 -67 58 C-65.55374943 53.51662324 -61.88476364 51.32739737 -58 49 C-53.59418156 47.53139385 -49.30600979 47.06965953 -44.95703125 48.82421875 C-40.29502496 51.40995007 -40.29502496 51.40995007 -39 54 C-39.7734375 53.76023438 -40.546875 53.52046875 -41.34375 53.2734375 C-48.0196496 51.37311954 -52.51002067 50.26737712 -59 53 C-62.08674438 55.52551813 -63.76964874 57.51204918 -65.47363281 61.12158203 C-68.30129869 64.34328484 -68.72890901 64.44832974 -72.76855469 64.77294922 C-74.73593096 64.81387391 -76.70415329 64.82244999 -78.671875 64.8046875 C-79.70942932 64.81839386 -80.74698364 64.83210022 -81.815979 64.84622192 C-85.12775756 64.88359296 -88.43804011 64.87980203 -91.75 64.875 C-93.99611726 64.89312168 -96.24221463 64.91392269 -98.48828125 64.9375 C-103.99233441 64.9894172 -109.49572454 65.0075511 -115 65 C-112.91110928 67.08889072 -108.5141003 66.42382799 -105.625 66.5703125 C-104.78533691 66.61566132 -103.94567383 66.66101013 -103.08056641 66.70773315 C-101.30188121 66.80245616 -99.52306596 66.8947627 -97.74414062 66.98486328 C-95.01127014 67.12442446 -92.27912396 67.27459155 -89.546875 67.42578125 C-87.82295022 67.51626648 -86.09899273 67.60613119 -84.375 67.6953125 C-83.14064209 67.76397018 -83.14064209 67.76397018 -81.88134766 67.83401489 C-79.92243941 67.92941322 -77.96100583 67.97036061 -76 68 C-75.67 67.67 -75.34 67.34 -75 67 C-71.8125 66.3125 -71.8125 66.3125 -68 67 C-66.19277194 69.38144584 -64.86912634 71.87703107 -63.453125 74.5078125 C-61.4545916 77.93540473 -59.63962435 79.42996597 -56 81 C-50.40872512 81.85632138 -45.66317392 81.39139922 -41 78 C-38.14212949 74.26095274 -36.10008279 70.20016558 -34 66 C-15.52 66 2.96 66 22 66 C22 66.66 22 67.32 22 68 C3.85 68 -14.3 68 -33 68 C-33.33 69.65 -33.66 71.3 -34 73 C-37.00250297 79.26609316 -41.69417387 81.70252846 -48 84 C-53.804484 84.90069579 -58.29984981 83.38962613 -63 80 C-65.82933563 76.92615389 -67.67952147 73.96143559 -69 70 C-85.83 70 -102.66 70 -120 70 C-123.24097415 76.4819483 -121.28230187 87.17174407 -119.375 93.875 C-114.67649239 107.25019414 -105.79132602 115.47637874 -93.28515625 121.7734375 C-91 123 -91 123 -89 125 C-88.70400957 126.92842248 -88.48996698 128.86958233 -88.3125 130.8125 C-86.32606253 145.76467658 -81.41979157 160.12462174 -72 172 C-71.58234375 172.59554687 -71.1646875 173.19109375 -70.734375 173.8046875 C-62.26778709 185.31209219 -45.59869969 191.72021799 -32 194 C-28.95414591 194.30138886 -27.56647953 194.36815691 -24.98046875 192.6875 C-24.38878906 192.130625 -23.79710937 191.57375 -23.1875 191 C-22.58292969 190.443125 -21.97835937 189.88625 -21.35546875 189.3125 C-20.90816406 188.879375 -20.46085937 188.44625 -20 188 C-20 191.38136116 -20.28431373 191.96713686 -22.5 194.375 C-25.44313472 196.79664241 -26.80454634 197.0074775 -30.67578125 196.859375 C-46.30354077 194.45120596 -61.11111715 187.67793233 -72 176 C-72 175.34 -72 174.68 -72 174 C-72.99 173.67 -73.98 173.34 -75 173 C-82.496244 162.75232562 -88.25494058 151.00707735 -89.54296875 138.265625 C-90.04516207 129.56795678 -90.04516207 129.56795678 -94.640625 122.703125 C-97.71424259 121.23445058 -100.784512 120.11419413 -104 119 C-106.33425471 117.49111712 -108.02452432 115.97547568 -110 114 C-110 113.34 -110 112.68 -110 112 C-110.59683594 111.76667969 -111.19367188 111.53335938 -111.80859375 111.29296875 C-117.5242946 107.92060336 -120.84806642 99.11602177 -123 93 C-124.55480444 84.66059439 -125.51169752 74.90131942 -122 67 C-119.525 66.505 -119.525 66.505 -117 66 C-117 65.34 -117 64.68 -117 64 C-118.65 63.67 -120.3 63.34 -122 63 C-123.34415042 58.46678681 -122.58524936 54.71866186 -121.4375 50.25 C-121.25622559 49.5391626 -121.07495117 48.8283252 -120.88818359 48.09594727 C-119.2756478 42.22419912 -116.88897977 37.70976947 -113 33 C-112.54882812 32.37867188 -112.09765625 31.75734375 -111.6328125 31.1171875 C-104.61587778 21.95949304 -93.03409227 17.33030441 -82 15 C-75.43036952 14.20903601 -68.79395053 14.33730988 -62.1875 14.375 C-46.06070709 14.7999479 -46.06070709 14.7999479 -30.94995117 9.87646484 C-28.11019223 8.60004884 -25.96208541 9.32679877 -23 10 C-23 10.66 -23 11.32 -23 12 C-21.27119018 12.05449838 -19.54187288 12.09301688 -17.8125 12.125 C-16.84957031 12.14820313 -15.88664062 12.17140625 -14.89453125 12.1953125 C-10.09891621 11.87172174 -7.26099501 10.41628049 -4 7 C-3.34 7 -2.68 7 -2 7 C-1.34 4.69 -0.68 2.38 0 0 Z " fill="#BAEA74" transform="translate(174,118)"/>
<path d="M0 0 C5.2026866 2.27006576 6.83342829 6.13518893 8.8828125 11.16796875 C10.86704042 17.22660643 11.30955993 23.19694956 11.57394409 29.51457214 C11.61466156 30.43470225 11.65537903 31.35483235 11.69733036 32.30284518 C12.11687363 42.58204577 12.14065611 52.85572393 12.12939453 63.1418457 C12.13075402 65.26673919 12.13253699 67.39163245 12.13470459 69.51652527 C12.13921251 75.21865947 12.13751744 80.92077532 12.1343255 86.62290978 C12.13176886 92.62647054 12.1341484 98.63002987 12.13571167 104.6335907 C12.1375231 114.70405353 12.13515338 124.77450899 12.13037109 134.8449707 C12.12492305 146.45066521 12.12669922 158.05634216 12.1321975 169.66203624 C12.13674913 179.67451798 12.13736938 189.68699446 12.13475883 199.6994769 C12.13320827 205.65881366 12.13296872 211.61814219 12.13629532 217.57747841 C12.13920421 223.17796836 12.13714339 228.77843586 12.13140106 234.37892342 C12.13008987 236.42178053 12.13043932 238.46463956 12.13266373 240.50749588 C12.17509513 283.46700039 12.17509513 283.46700039 -1 299 C-1.59554687 299.73089844 -2.19109375 300.46179688 -2.8046875 301.21484375 C-13.16720489 312.80040504 -28.87278399 316.47882107 -43.72265625 318.1796875 C-46.56457601 317.95545369 -47.13479001 317.04532468 -49 315 C-48.43603516 314.95512451 -47.87207031 314.91024902 -47.29101562 314.86401367 C-44.69287478 314.65042777 -42.09659654 314.41907848 -39.5 314.1875 C-38.613125 314.11724609 -37.72625 314.04699219 -36.8125 313.97460938 C-24.88460017 312.87829505 -12.2729223 307.93631702 -4 299 C3.65534737 289.49569161 8.04897388 280.36789016 8.31201172 268.16333008 C8.34274717 266.91746785 8.34274717 266.91746785 8.37410355 265.64643669 C8.44144956 262.75007625 8.49908204 259.85364033 8.5546875 256.95703125 C8.5860914 255.38911803 8.5860914 255.38911803 8.61812973 253.7895298 C9.36829277 214.77736122 9.14970028 175.74694682 9.12856936 136.72957814 C9.12420991 127.73120957 9.12734291 118.73285493 9.1321975 109.73448724 C9.13674332 100.95033208 9.13737386 92.16618292 9.13475883 83.38202697 C9.13321217 78.17942686 9.13295884 72.97683616 9.13629532 67.77423668 C9.1391978 62.91535183 9.137155 58.05649292 9.13140106 53.19761086 C9.13008889 51.42760384 9.13044104 49.65759461 9.13266373 47.8875885 C9.15269477 30.30924199 8.36808373 15.83958706 0 0 Z " fill="#4CC2BE" transform="translate(211,30)"/>
<path d="M0 0 C0.99 0.495 0.99 0.495 2 1 C-2.75 5 -2.75 5 -5 5 C-5.26167969 5.60457031 -5.52335937 6.20914062 -5.79296875 6.83203125 C-7.08227606 9.14777739 -8.20214333 10.12929873 -10.3125 11.6875 C-13.86745316 14.59945747 -15.79792594 17.68181849 -17.859375 21.75390625 C-18.42398438 22.86572266 -18.42398438 22.86572266 -19 24 C-19.36738281 24.84691406 -19.73476562 25.69382812 -20.11328125 26.56640625 C-22.89498517 30.15440116 -26.22799335 30.95330032 -30.4375 32.375 C-43.02371126 37.03254591 -51.79598268 42.39062638 -61.375 51.8125 C-62.13683594 52.55927002 -62.89867187 53.30604004 -63.68359375 54.07543945 C-77.0664365 67.71053817 -83.09768275 85.06951482 -83.62182617 103.94946289 C-83.82691589 110.05106189 -84.24618995 115.01693373 -88.390625 119.703125 C-89.33421875 120.54359375 -90.2778125 121.3840625 -91.25 122.25 C-96.58294083 127.24013991 -99.92381451 132.33826064 -103 139 C-103.56460938 140.08861328 -103.56460938 140.08861328 -104.140625 141.19921875 C-108.81188682 150.6288928 -110.42241489 161.56846289 -111 172 C-111.05285156 172.72703125 -111.10570312 173.4540625 -111.16015625 174.203125 C-111.88041517 192.61670093 -106.145851 208.91132647 -94.34765625 222.96875 C-90.45014103 227.15055457 -86.17294644 229.86674975 -81.13671875 232.54296875 C-76.85186868 235.4648135 -76.55777292 239.6276332 -75.625 244.5 C-72.06339223 261.54987483 -65.33556688 276.50577631 -53 289 C-51.34867438 290.02513486 -49.68257686 291.02700827 -48 292 C-46.6602037 293.32683889 -45.326775 294.66014043 -44 296 C-34.67647481 302.44112276 -24.94332277 306.29996522 -14 309 C-14 309.33 -14 309.66 -14 310 C-30.34964269 309.92465602 -44.97353126 300.03339968 -56.375 289.0625 C-70.7397305 273.99932231 -77.88865273 255.45170714 -80 235 C-80.89976563 234.73316406 -81.79953125 234.46632812 -82.7265625 234.19140625 C-94.23186592 230.00391515 -102.50855757 219.018208 -107.69433594 208.37817383 C-110.28460943 202.7444049 -111.88516017 197.0825661 -113 191 C-113.13019531 190.30648437 -113.26039062 189.61296875 -113.39453125 188.8984375 C-113.69877184 186.92695849 -113.87672777 184.99103328 -114 183 C-114.05285156 182.17886719 -114.10570312 181.35773438 -114.16015625 180.51171875 C-114.80499236 160.24143583 -109.47366798 137.67046168 -96 122 C-94.515 121.505 -94.515 121.505 -93 121 C-92.31513275 119.67592331 -91.65129797 118.34090759 -91 117 C-90.32839844 116.49855469 -89.65679687 115.99710937 -88.96484375 115.48046875 C-85.93342628 111.6535302 -86.49581553 107.86893369 -86.5 103.125 C-86.03156018 84.48778732 -79.5468958 67.13328493 -67 53 C-66.34 53 -65.68 53 -65 53 C-64.77699219 52.43796875 -64.55398437 51.8759375 -64.32421875 51.296875 C-58.49558166 41.18702659 -43.48349631 33.26305043 -32.58984375 29.96875 C-31.54957031 29.6903125 -30.50929688 29.411875 -29.4375 29.125 C-24.92717992 27.75203207 -23.11874919 26.46474392 -20.75 22.375 C-20.08871094 21.06402344 -20.08871094 21.06402344 -19.4140625 19.7265625 C-15.11289228 11.43314588 -8.40429766 4.20214883 0 0 Z " fill="#BEE971" transform="translate(150,16)"/>
<path d="M0 0 C0.33 0.66 0.66 1.32 1 2 C-3.6227356 8.55506881 -8.49283246 13.3453234 -15 18 C-15.54011719 18.43957031 -16.08023438 18.87914062 -16.63671875 19.33203125 C-23.91662883 25.10828232 -33.17605537 28.50808717 -42.1875 30.375 C-44.81910678 30.96933665 -44.81910678 30.96933665 -47 32 C-48.60817204 34.9483154 -49.24604114 36.83133508 -50 40 C-54.67636672 53.76078403 -62.13234906 63.14443144 -75 70 C-75.85207031 70.47179687 -76.70414062 70.94359375 -77.58203125 71.4296875 C-85.36157419 75.37194464 -93.46586535 76.68293781 -102 78 C-102.37511719 79.61455078 -102.37511719 79.61455078 -102.7578125 81.26171875 C-104.02025385 85.06095262 -104.83632955 86.36436362 -107.875 88.8125 C-108.89207031 89.65748047 -108.89207031 89.65748047 -109.9296875 90.51953125 C-115.22714222 94.30771114 -119.58147284 94.74431716 -126 94 C-132.02509946 92.41947215 -135.74534994 88.90524026 -138.9296875 83.6328125 C-141.13551459 78.20679988 -141.1184085 72.41114592 -139.296875 66.85546875 C-136.60236776 61.61488052 -132.44645663 58.22322832 -127.25 55.625 C-121.27340773 54.47565533 -116.00867469 54.92126729 -110.625 57.8125 C-108 60 -108 60 -106.1875 62.25 C-102.70412789 65.03669769 -99.28881335 64.4510772 -95 64 C-85.09677636 62.48933877 -73.56375586 57.3793368 -67.39453125 49.2890625 C-62.8715416 41.86477136 -60.47475652 34.78183192 -60.23828125 26.08203125 C-60.15964844 25.39496094 -60.08101563 24.70789063 -60 24 C-59.01 23.505 -59.01 23.505 -58 23 C-57.0252814 33.80854627 -59.89589001 43.12469011 -66.25 51.9375 C-74.861843 62.04947048 -87.03917662 65.84376472 -99.875 67.5 C-102.61682265 67.4896924 -103.69656144 67.24351582 -105.859375 65.5078125 C-107.04010321 64.24871738 -108.20682428 62.97634456 -109.359375 61.69140625 C-112.78636467 58.15834309 -116.81709998 57.89110435 -121.5 57.6875 C-125.66828565 57.79958835 -128.48664833 58.63053027 -132 61 C-135.84428838 65.05785995 -137.67990181 68.66785605 -138.4375 74.1875 C-137.71413465 80.49111236 -135.37048549 86.08103556 -130.375 90.125 C-124.37599667 91.68029716 -118.66164731 91.75329641 -112.6875 90.0625 C-108.75435394 87.04403907 -106.53117247 83.20845543 -104 79 C-101.40181104 75.10271656 -98.81970796 74.98020408 -94.5 74.0625 C-85.63691311 72.01062111 -77.31629522 69.63964424 -70 64 C-69.22785156 63.41863281 -68.45570313 62.83726562 -67.66015625 62.23828125 C-59.23060938 55.38055966 -53.86314351 46.55646983 -51.8125 35.8125 C-51 32 -51 32 -49.34765625 30.37109375 C-46.49210545 28.70337606 -43.8386087 28.02950234 -40.625 27.25 C-27.43303567 23.60989366 -13.6679424 16.98722671 -5.29296875 5.69921875 C-4.86628906 5.13847656 -4.43960938 4.57773437 -4 4 C-3.34 4 -2.68 4 -2 4 C-1.34 2.68 -0.68 1.36 0 0 Z " fill="#02D0E2" transform="translate(399,268)"/>
<path d="M0 0 C3.1419468 2.05924892 5.55641012 4.13247402 7.29492188 7.5324707 C9.53045318 10.76765325 11.20519406 11.10299737 14.96875 12.10546875 C16.17096191 12.44384766 17.37317383 12.78222656 18.61181641 13.13085938 C19.2467804 13.30254639 19.88174438 13.4742334 20.53594971 13.65112305 C43.42219009 19.90129491 62.66569416 29.42761776 77 49 C77.54269531 49.72058594 78.08539063 50.44117188 78.64453125 51.18359375 C85.94380353 61.98805746 90.24613076 76.93867977 91.515625 89.8203125 C92.41293307 93.85819882 95.78866647 95.67455158 99 98 C98.67 98.66 98.34 99.32 98 100 C94.2697037 98.63222469 92.61671605 97.90410105 90 95 C88.05001239 90.02787611 87.42323203 84.57106183 86.46972656 79.33935547 C82.70495794 60.58986849 72.90056109 43.25275583 57 32.2890625 C56.01 31.65097656 56.01 31.65097656 55 31 C53.9171875 30.26910156 53.9171875 30.26910156 52.8125 29.5234375 C42.13923422 22.67709926 30.28774034 18.80016794 18.078125 15.73608398 C13.9560329 14.67647362 10.47622662 13.57892147 7 11 C6.31246699 9.34183216 5.64438717 7.67540664 5 6 C3.21771064 4.85790183 3.21771064 4.85790183 1 4 C0.175 3.29875 -0.65 2.5975 -1.5 1.875 C-6.66939493 -0.89431871 -11.25638684 -0.84052875 -17 0 C-22.04645863 1.68962911 -25.75285032 4.00390179 -28.5 8.625 C-31.3314719 14.99581177 -31.98743362 20.08707082 -29.75 26.6875 C-27.07671402 31.74764846 -24.74903652 35.39547756 -19.19140625 37.49609375 C-13.3089344 38.8487477 -7.28508094 38.74784467 -1.5625 36.875 C2.28640838 34.05872558 4.96465266 30.63929995 7.5 26.625 C9 25 9 25 11.6875 24.75 C12.450625 24.8325 13.21375 24.915 14 25 C14.495 25.99 14.495 25.99 15 27 C14.0925 27.04125 13.185 27.0825 12.25 27.125 C7.88801364 28.29938094 7.3250697 30.22176174 5 34 C0.25759746 38.74240254 -3.95095162 41.28779892 -10.6875 41.4375 C-16.88322922 41.30920841 -21.20689163 39.95952431 -26 36 C-31.84519608 29.66153843 -33.37054675 24.65280115 -33.27734375 16.078125 C-32.73479337 10.05657998 -30.41366069 6.44578934 -26.25 2.1875 C-17.70111246 -3.56655892 -9.3750166 -4.78278286 0 0 Z " fill="#02CEE2" transform="translate(277,12)"/>
<path d="M0 0 C0 0.66 0 1.32 0 2 C-1.03447266 2.29390625 -1.03447266 2.29390625 -2.08984375 2.59375 C-11.83489904 5.69505703 -18.77004337 10.97824122 -23.96875 19.84765625 C-25.13500149 22.28176447 -25.95154143 24.75560148 -26.8125 27.3125 C-28.28938181 31.09700963 -28.59029193 31.77582011 -32.3125 33.8125 C-33.86896479 34.23143632 -35.43286269 34.62294441 -37 35 C-54.9881287 40.45459421 -70.87870596 49.28868602 -80.57421875 66.10546875 C-85.85808285 76.8324367 -87.97571828 87.22840413 -89 99 C-88.43361816 98.78923828 -87.86723633 98.57847656 -87.28369141 98.36132812 C-76.97385048 95.01461635 -66.45346006 95.53439552 -55.73730469 95.48876953 C-53.16575726 95.47295495 -50.59480314 95.43994983 -48.0234375 95.40625 C-46.86526016 95.41078186 -46.86526016 95.41078186 -45.6836853 95.41540527 C-40.29657737 95.34225502 -34.73520859 94.75307052 -30 92 C-28.81219995 89.76106233 -28.20000883 87.73786235 -27.58984375 85.28125 C-26.34560335 80.46908845 -23.82398813 77.65232394 -20 74.625 C-15.07762396 72.07857603 -9.37749988 72.18678135 -4 73 C0.66666667 75.33333333 0.66666667 75.33333333 2 78 C1.35933594 77.77183594 0.71867187 77.54367188 0.05859375 77.30859375 C-6.77832477 75.03641368 -11.29883531 74.62113472 -18.1875 77.1875 C-21.65197529 79.42016185 -23.07609372 81.35832026 -25 85 C-25.27458836 86.37030151 -25.52399453 87.74585297 -25.75 89.125 C-26.57030076 92.58285628 -26.92053924 92.94184543 -30.015625 95.20703125 C-36.78842888 98.31085525 -44.69498186 97.56787698 -52 97.5625 C-62.55156977 97.57945667 -72.40238749 98.13515998 -82.7421875 100.35913086 C-86 101 -86 101 -90 101 C-92.87484319 95.25031361 -90.55204666 85.22888839 -89.0625 79.21484375 C-82.58045622 59.96061503 -69.8309759 46.48379951 -52 37.125 C-45.09065748 33.81986501 -37.75085205 31 -30 31 C-29.938125 30.21625 -29.87625 29.4325 -29.8125 28.625 C-27.60967098 18.7969936 -21.89195437 10.93483286 -14.125 4.6875 C-9.876667 2.39340018 -4.91840701 0 0 0 Z " fill="#B9E973" transform="translate(168,24)"/>
<path d="M0 0 C7.22249793 -0.6120761 7.22249793 -0.6120761 10.9375 2.3125 C14.03018065 6.34235661 14.16155987 9.41083668 14.32299805 14.36376953 C14.34437395 15.00780102 14.36574986 15.6518325 14.38777351 16.3153801 C14.4561162 18.46272089 14.51603419 20.6101735 14.57421875 22.7578125 C14.59542974 23.50468449 14.61664074 24.25155647 14.63849449 25.02106094 C15.10922218 41.99946256 15.07739734 58.96701965 14.86791992 75.94921875 C14.81757411 80.11269308 14.79204793 84.27596694 14.77148914 88.4396801 C14.7510443 91.71722498 14.7131743 94.99440671 14.6706295 98.27173233 C14.65353501 99.80801803 14.64265192 101.34438834 14.63868141 102.88076401 C14.60066831 114.19703481 13.79076792 125.56275552 6.0625 134.5 C5.41410156 135.2734375 4.76570313 136.046875 4.09765625 136.84375 C0.5911189 140.44823532 -2.97035871 143.24403984 -7.5625 145.3125 C-8.30628906 145.65925781 -9.05007812 146.00601563 -9.81640625 146.36328125 C-12.30269091 147.08826229 -13.5876853 146.84786571 -16 146 C-16.02578125 145.35933594 -16.0515625 144.71867188 -16.078125 144.05859375 C-16.45801505 138.26527043 -17.04696487 133.45284417 -21 129 C-25.56132674 125.27161119 -30.30349222 123.3054497 -36 122 C-36 120.02 -36 118.04 -36 116 C-34 118 -34 118 -33 121 C-31.0656774 121.43355507 -29.13115488 121.86625081 -27.1953125 122.29296875 C-21.85460895 124.0130174 -18.24998639 128.08467338 -15.5625 132.875 C-13.67688434 137.03137834 -13.67768984 140.48765771 -14 145 C-4.28034218 140.58019584 4.91068845 135.16918194 8.86444092 124.71412659 C11.67715363 114.73633437 11.39840407 104.86227138 11.328125 94.58984375 C11.32505825 92.61227056 11.32318911 90.63469518 11.32244873 88.65711975 C11.31786671 84.52433917 11.30353136 80.3917557 11.28125 76.2590332 C11.2531006 71.01716996 11.24204781 65.7754619 11.2375679 60.53353024 C11.23235472 55.46894896 11.21786357 50.40440461 11.203125 45.33984375 C11.20030392 43.93160497 11.20030392 43.93160497 11.19742584 42.49491692 C11.17223072 32.75380853 11.04309957 23.02376754 10.61230469 13.29125977 C10.5822295 12.48388083 10.55215431 11.6765019 10.52116776 10.84465694 C10.4447642 6.45559785 10.4447642 6.45559785 8 3 C5.34462628 2.43479997 2.70855287 2.26211802 0 2 C0 1.34 0 0.68 0 0 Z " fill="#57CBBE" transform="translate(196,184)"/>
<path d="M0 0 C-1.01320313 0.56267578 -1.01320313 0.56267578 -2.046875 1.13671875 C-8.37149226 4.76514802 -13.17032228 7.56802423 -15.25 14.875 C-16.68224539 21.84092074 -16.07181906 26.63053584 -12.97265625 32.984375 C-12 35 -12 35 -11 38 C-8.78566059 39.08742694 -8.78566059 39.08742694 -6 40 C-4.96875 40.53625 -3.9375 41.0725 -2.875 41.625 C3.33747706 44.32252294 10.55321204 43.44296337 17 42 C17 41.34 17 40.68 17 40 C20.46153846 37 20.46153846 37 23 37 C23.20625 36.29875 23.4125 35.5975 23.625 34.875 C25.40084439 31.16187082 27.54001177 28.27771426 31 26 C37.05467695 24.16738091 42.5676383 23.68016868 48.87109375 23.6640625 C49.79285904 23.6574057 50.71462433 23.6507489 51.6643219 23.64389038 C53.60309876 23.63381903 55.5419099 23.62907164 57.48071289 23.62939453 C60.42587952 23.62501727 63.36955046 23.58862778 66.31445312 23.55078125 C68.20832827 23.5449125 70.10221045 23.5409435 71.99609375 23.5390625 C72.86511826 23.52469147 73.73414276 23.51032043 74.62950134 23.49551392 C84.38858999 23.56748281 92.06714383 27.82604478 99.4375 34.0625 C106.9204197 42.64048112 114 54.30845437 114 66 C113.34 66 112.68 66 112 66 C111.79375 64.96875 111.5875 63.9375 111.375 62.875 C108.33605414 50.91047888 102.7492212 37.91021363 92 31 C85.30323778 27.27942846 79.6436495 26.41531187 72.05078125 26.50390625 C70.52640694 26.5017234 70.52640694 26.5017234 68.97123718 26.49949646 C66.83748487 26.50114677 64.70371956 26.51260988 62.57006836 26.53344727 C59.31117167 26.56251185 56.05389378 26.55401521 52.79492188 26.54101562 C50.7135338 26.54725083 48.63215082 26.55564006 46.55078125 26.56640625 C45.58191483 26.56347061 44.6130484 26.56053497 43.61482239 26.55751038 C38.33221252 26.63102385 34.55821241 27.02624867 30 30 C28.08397108 32.04463774 28.08397108 32.04463774 26.5625 34.375 C21.86444506 40.72511821 16.9695245 44.67174592 9 46 C0.82268787 46.32759648 -5.77644717 44.42928822 -12 39 C-16.68386933 32.95476215 -19.48015331 27.02173299 -19.3359375 19.27734375 C-18.20375685 11.60221211 -13.6745841 6.07917946 -7.8671875 1.27734375 C-4.82463989 -0.80406435 -3.54339609 -1.18113203 0 0 Z " fill="#02CEE1" transform="translate(291,152)"/>
<path d="M0 0 C0.33 0 0.66 0 1 0 C1.1546374 12.63158963 1.30280546 25.26323759 1.4429636 37.89499664 C1.50825903 43.7619082 1.57569113 49.6287782 1.64819336 55.49560547 C1.71822344 61.1690016 1.78239659 66.84243783 1.84269524 72.51594543 C1.86656769 74.66862853 1.89246689 76.82129024 1.92053413 78.97392273 C2.49052722 123.09511643 2.49052722 123.09511643 -11 139 C-11.59554687 139.73089844 -12.19109375 140.46179688 -12.8046875 141.21484375 C-23.16720489 152.80040504 -38.87278399 156.47882107 -53.72265625 158.1796875 C-56.56457601 157.95545369 -57.13479001 157.04532468 -59 155 C-58.43603516 154.95512451 -57.87207031 154.91024902 -57.29101562 154.86401367 C-54.69287478 154.65042777 -52.09659654 154.41907848 -49.5 154.1875 C-48.613125 154.11724609 -47.72625 154.04699219 -46.8125 153.97460938 C-34.88460017 152.87829505 -22.2729223 147.93631702 -14 139 C-7.72417119 131.20839898 -2.02532175 122.21305166 -1.79467773 111.93994141 C-1.77473251 111.13705688 -1.75478729 110.33417236 -1.73423767 109.50695801 C-1.71752518 108.63067749 -1.70081268 107.75439697 -1.68359375 106.8515625 C-1.66281265 105.91485718 -1.64203156 104.97815186 -1.62062073 104.01306152 C-1.55390281 100.88379559 -1.49526817 97.75444319 -1.4375 94.625 C-1.41598877 93.5497406 -1.39447754 92.4744812 -1.37231445 91.36663818 C-1.093836 77.25456162 -0.96416566 63.14571397 -0.97265625 49.03125 C-0.97304838 48.32506908 -0.97344051 47.61888817 -0.97384453 46.89130783 C-0.97911052 39.89162369 -0.99466355 32.89204622 -1.02777004 25.89243698 C-1.03667116 23.90896991 -1.04325611 21.92549288 -1.04978943 19.9420166 C-1.05805946 17.50425359 -1.07050237 15.06649996 -1.08778381 12.62878418 C-1.09104172 11.54746216 -1.09429962 10.46614014 -1.09765625 9.35205078 C-1.10289307 8.41032013 -1.10812988 7.46858948 -1.11352539 6.49832153 C-1.0082076 4.18062233 -0.65753618 2.21731569 0 0 Z " fill="#4FCEC9" transform="translate(221,190)"/>
<path d="M0 0 C2 1 2 1 3 2 C5.79623117 2.24406103 8.57302996 2.42824571 11.375 2.5703125 C12.21466309 2.61566132 13.05432617 2.66101013 13.91943359 2.70773315 C15.69811879 2.80245616 17.47693404 2.8947627 19.25585938 2.98486328 C21.98872986 3.12442446 24.72087604 3.27459155 27.453125 3.42578125 C29.17704978 3.51626648 30.90100727 3.60613119 32.625 3.6953125 C33.44790527 3.74108429 34.27081055 3.78685608 35.11865234 3.83401489 C37.07756059 3.92941322 39.03899417 3.97036061 41 4 C41.33 3.67 41.66 3.34 42 3 C45.1875 2.3125 45.1875 2.3125 49 3 C50.80722806 5.38144584 52.13087366 7.87703107 53.546875 10.5078125 C55.5454084 13.93540473 57.36037565 15.42996597 61 17 C66.59127488 17.85632138 71.33682608 17.39139922 76 14 C78.85787051 10.26095274 80.89991721 6.20016558 83 2 C101.48 2 119.96 2 139 2 C139 2.66 139 3.32 139 4 C120.85 4 102.7 4 84 4 C83.67 5.65 83.34 7.3 83 9 C79.99749703 15.26609316 75.30582613 17.70252846 69 20 C63.195516 20.90069579 58.70015019 19.38962613 54 16 C51.17066437 12.92615389 49.32047853 9.96143559 48 6 C46.96294922 6.00523682 45.92589844 6.01047363 44.85742188 6.01586914 C40.92855732 6.03427098 36.99969637 6.04555749 33.07080078 6.05493164 C31.38557287 6.0598929 29.70034909 6.06666403 28.01513672 6.07543945 C16.9621949 6.13146212 6.02355796 5.84818667 -5 5 C-5 4.34 -5 3.68 -5 3 C-3.35 2.67 -1.7 2.34 0 2 C0 1.34 0 0.68 0 0 Z " fill="#B7EB7A" transform="translate(57,182)"/>
<path d="M0 0 C3.79340902 2.82300206 6.92891931 6.1559423 9.6875 10 C9.6875 10.66 9.6875 11.32 9.6875 12 C10.72567871 11.98428955 11.76385742 11.9685791 12.83349609 11.95239258 C16.72859776 11.89760943 20.6236662 11.86347615 24.51904297 11.83520508 C26.19683583 11.82022766 27.87459028 11.79983846 29.55224609 11.77368164 C52.00081348 11.43274152 52.00081348 11.43274152 60.3125 18 C60.96476562 18.495 61.61703125 18.99 62.2890625 19.5 C63.6875 21 63.6875 21 63.6875 24 C62.97787109 23.40251953 62.97787109 23.40251953 62.25390625 22.79296875 C61.59261719 22.26316406 60.93132812 21.73335938 60.25 21.1875 C59.61191406 20.66542969 58.97382813 20.14335937 58.31640625 19.60546875 C48.14640996 13.39466864 36.78971534 14.57422801 25.30297852 14.63964844 C22.81988214 14.64820346 20.33842068 14.62659146 17.85546875 14.6015625 C17.09501755 14.61490631 16.33456635 14.62825012 15.55107117 14.64199829 C11.70817296 14.58819668 10.06558325 14.3731322 7.2824707 11.62646484 C6.75613037 10.75973145 6.22979004 9.89299805 5.6875 9 C2.79955871 4.50764688 0.14031172 2.88495814 -4.875 1.44140625 C-10.40013173 0.44086156 -14.7262817 1.17751644 -19.6875 3.75 C-23.35117702 6.89029459 -25.62470486 10.18543403 -26.3125 15 C-26.74503267 21.70425645 -25.91813704 25.71882743 -21.625 31.125 C-18.46446606 33.68759509 -15.0003293 35.3172041 -11.3125 37 C-13.89848542 37.98737625 -14.94955595 38.15846853 -17.53125 37.03125 C-23.42833688 33.07293141 -27.03791782 29.9378918 -28.87109375 22.8359375 C-29.92900178 16.48848933 -28.6516482 11.65336927 -25.20703125 6.2734375 C-18.91455178 -1.99435106 -9.51537674 -2.87256656 0 0 Z " fill="#02D0E2" transform="translate(279.3125,253)"/>
<path d="M0 0 C2.37109375 1.00390625 2.37109375 1.00390625 5 3 C5.93315245 5.73983098 6.55323486 8.12196058 7.0625 10.9375 C7.38675859 12.4838887 7.71490595 14.02946692 8.046875 15.57421875 C8.20607422 16.33138184 8.36527344 17.08854492 8.52929688 17.86865234 C11.82814073 32.80584468 19.28007272 46.14219585 30 57 C31.65132562 58.02513486 33.31742314 59.02700827 35 60 C36.3397963 61.32683889 37.673225 62.66014043 39 64 C48.32352519 70.44112276 58.05667723 74.29996522 69 77 C69 77.33 69 77.66 69 78 C52.65035731 77.92465602 38.02646874 68.03339968 26.625 57.0625 C12.2602695 41.99932231 5.11134727 23.45170714 3 3 C2.01 2.67 1.02 2.34 0 2 C0 1.34 0 0.68 0 0 Z " fill="#B8E973" transform="translate(67,248)"/>
<path d="M0 0 C1.60379341 -0.05416188 3.20811406 -0.09286638 4.8125 -0.125 C5.70582031 -0.14820312 6.59914062 -0.17140625 7.51953125 -0.1953125 C10 0 10 0 13 2 C13.90718513 4.72155538 14.12630902 6.30105835 14.12939453 9.09741211 C14.13254669 9.91934555 14.13569885 10.74127899 14.13894653 11.58811951 C14.1369223 12.47556351 14.13489807 13.36300751 14.1328125 14.27734375 C14.13376923 15.19906876 14.13472595 16.12079376 14.13571167 17.07044983 C14.13639273 19.02654081 14.13454357 20.98263405 14.13037109 22.9387207 C14.12507657 25.89474763 14.13028993 28.85061878 14.13671875 31.80664062 C14.15212764 58.75650756 14.15212764 58.75650756 10 65 C7.03 64.67 4.06 64.34 1 64 C1 63.67 1 63.34 1 63 C4.07617188 62.70703125 4.07617188 62.70703125 7.15234375 62.4140625 C8.06693359 62.20910156 8.06693359 62.20910156 9 62 C10.29966585 59.4006683 10.16044162 57.45135797 10.20532227 54.54052734 C10.2352401 52.82897964 10.2352401 52.82897964 10.26576233 51.08285522 C10.28247482 49.84637238 10.29918732 48.60988953 10.31640625 47.3359375 C10.3475779 45.4424205 10.3475779 45.4424205 10.37937927 43.51065063 C10.43377926 40.15367955 10.48400236 36.79669811 10.53222656 33.43963623 C10.58245042 30.01438935 10.63813186 26.58923171 10.69335938 23.1640625 C10.80061863 16.44277714 10.9018701 9.72142459 11 3 C7.37 2.34 3.74 1.68 0 1 C0 0.67 0 0.34 0 0 Z " fill="#66DCC3" transform="translate(196,115)"/>
<path d="M0 0 C18.48 0 36.96 0 56 0 C56 0.66 56 1.32 56 2 C37.85 2 19.7 2 1 2 C0.67 3.65 0.34 5.3 0 7 C-2.98807335 13.23597917 -7.71300814 15.71651711 -14 18 C-17.625 18.3125 -17.625 18.3125 -20 18 C-19.67 17.34 -19.34 16.68 -19 16 C-17.109375 15.5078125 -17.109375 15.5078125 -14.75 15.125 C-10.48091641 14.2198462 -8.0015144 13.335016 -5 10 C-3.35 6.7 -1.7 3.4 0 0 Z " fill="#9FEE9A" transform="translate(140,184)"/>
<path d="M0 0 C7.39212696 5.32233141 12.06003 12.23234451 13.54864502 21.3664856 C13.75405532 24.98873726 13.78040147 28.56381044 13.7265625 32.19140625 C13.72755951 33.49907455 13.72855652 34.80674286 13.72958374 36.15403748 C13.72940606 38.89492221 13.70889648 41.63460849 13.67236328 44.37524414 C13.62658267 47.88608319 13.62599016 51.39520935 13.63939857 54.90626621 C13.64767349 58.27234281 13.62376907 61.63788889 13.6015625 65.00390625 C13.60338531 66.2632045 13.60520813 67.52250275 13.60708618 68.81996155 C13.58802216 69.98224777 13.56895813 71.144534 13.54931641 72.34204102 C13.53549423 73.87659691 13.53549423 73.87659691 13.52139282 75.44215393 C13 78 13 78 10.96566772 79.85362244 C10.31699738 80.23192703 9.66832703 80.61023163 9 81 C8.34 80.34 7.68 79.68 7 79 C8.485 78.505 8.485 78.505 10 78 C10.09325368 70.62783147 10.16404243 63.25579301 10.20724869 55.88315105 C10.22800031 52.45858913 10.25608503 49.03443483 10.30175781 45.61010742 C10.35409597 41.66069657 10.37304794 37.71144271 10.390625 33.76171875 C10.41127014 32.54981369 10.43191528 31.33790863 10.45318604 30.08927917 C10.45588927 19.70690943 8.64214241 10.90256496 1.171875 3.33984375 C0 2 0 2 0 0 Z " fill="#69E5CB" transform="translate(196,32)"/>
<path d="M0 0 C0.33 0 0.66 0 1 0 C1.74357607 13.36371438 -1.17184784 21.02559573 -10 31 C-13.89426534 34.79178467 -18.77177911 37.47549194 -24 39 C-26.27734375 38.60546875 -26.27734375 38.60546875 -28 38 C-28.02578125 37.35933594 -28.0515625 36.71867187 -28.078125 36.05859375 C-28.45801505 30.26527043 -29.04696487 25.45284417 -33 21 C-37.56132674 17.27161119 -42.30349222 15.3054497 -48 14 C-48 12.02 -48 10.04 -48 8 C-46 10 -46 10 -45 13 C-43.0656774 13.43355507 -41.13115488 13.86625081 -39.1953125 14.29296875 C-33.85460895 16.0130174 -30.24998639 20.08467338 -27.5625 24.875 C-25.67688434 29.03137834 -25.67768984 32.48765771 -26 37 C-17.05510772 32.93250371 -8.56698642 28.10039207 -4 19 C-1.97688945 12.81265356 -0.73424546 6.46136001 0 0 Z " fill="#68DAC0" transform="translate(208,292)"/>
<path d="M0 0 C1.04929687 0.05800781 2.09859375 0.11601563 3.1796875 0.17578125 C4.21351563 0.19511719 5.24734375 0.21445313 6.3125 0.234375 C22.94500689 0.71617306 38.03123081 5.42994439 50.4296875 16.80078125 C50.4296875 17.46078125 50.4296875 18.12078125 50.4296875 18.80078125 C51.0690625 19.08953125 51.7084375 19.37828125 52.3671875 19.67578125 C54.4296875 20.80078125 54.4296875 20.80078125 55.4296875 22.80078125 C52.18697244 22.24169245 50.49911326 21.38756345 48.4296875 18.80078125 C48.4296875 18.14078125 48.4296875 17.48078125 48.4296875 16.80078125 C47.86378906 16.53007813 47.29789062 16.259375 46.71484375 15.98046875 C44.33528157 14.7520452 42.12648714 13.36250227 39.8671875 11.92578125 C28.55347883 5.08065278 17.86137347 3.561093 4.8671875 3.36328125 C3.63548828 3.31751953 2.40378906 3.27175781 1.13476562 3.22460938 C-2.2050434 3.18274801 -5.28296547 3.20505639 -8.5703125 3.80078125 C-11.38729694 6.49052118 -11.38729694 6.49052118 -12.5703125 9.80078125 C-15.79859002 12.86350608 -18.13151861 14.29349052 -22.5703125 14.80078125 C-22.5703125 14.14078125 -22.5703125 13.48078125 -22.5703125 12.80078125 C-20.68229167 12.01953125 -18.79427083 11.23828125 -16.90625 10.45703125 C-14.39357758 8.67547087 -13.61245758 7.27725823 -12.03125 4.68359375 C-8.64488988 -0.0147537 -5.5702382 -0.09166215 0 0 Z " fill="#01CDEB" transform="translate(330.5703125,105.19921875)"/>
<path d="M0 0 C0.66 0 1.32 0 2 0 C3.49894768 2.32936469 4.88709721 4.65535367 6.25 7.0625 C15.59514825 23.00105605 28.36336206 32.10689126 46.5 36.875 C50.06239803 37.72645228 53.33849233 38.39422432 57 38 C59.07129582 36.7390027 59.07129582 36.7390027 60.8125 35 C61.41707031 34.443125 62.02164063 33.88625 62.64453125 33.3125 C63.09183594 32.879375 63.53914063 32.44625 64 32 C64 35.38136116 63.71568627 35.96713686 61.5 38.375 C58.55686528 40.79664241 57.19545366 41.0074775 53.32421875 40.859375 C37.69645923 38.45120596 22.88888285 31.67793233 12 20 C12 19.34 12 18.68 12 18 C11.01 17.67 10.02 17.34 9 17 C7.83325195 15.54125977 7.83325195 15.54125977 6.73828125 13.69140625 C6.34189453 13.02689453 5.94550781 12.36238281 5.53710938 11.67773438 C5.13298828 10.97970703 4.72886719 10.28167969 4.3125 9.5625 C3.89677734 8.86833984 3.48105469 8.17417969 3.05273438 7.45898438 C0 2.28086515 0 2.28086515 0 0 Z " fill="#A7E882" transform="translate(90,274)"/>
<path d="M0 0 C8.91 0 17.82 0 27 0 C27 7.89461436 27 7.89461436 25.75 11.05078125 C25.47518799 11.74478027 25.20037598 12.4387793 24.91723633 13.15380859 C24.61454834 13.86617676 24.31186035 14.57854492 24 15.3125 C23.68893311 16.05580566 23.37786621 16.79911133 23.05737305 17.56494141 C19.62052743 25.40815254 15.06087024 32.02138196 8 37 C9.01783577 33.64114197 10.3917681 31.45623983 12.75 28.9375 C19.20947908 21.73391426 23.66885519 11.53987116 25 2 C21.081868 1.993741 17.16741969 2.05328522 13.25 2.125 C12.13882812 2.12242187 11.02765625 2.11984375 9.8828125 2.1171875 C4.21851865 2.02034376 4.21851865 2.02034376 -0.65820312 4.39355469 C-1.9322537 6.19067055 -1.9322537 6.19067055 -3 9 C-3.33 8.34 -3.66 7.68 -4 7 C-3.0625 4.375 -3.0625 4.375 -2 2 C-1.34 2 -0.68 2 0 2 C0 1.34 0 0.68 0 0 Z " fill="#02C8DC" transform="translate(378,237)"/>
<path d="M0 0 C0.66 0.33 1.32 0.66 2 1 C1.360625 1.78375 0.72125 2.5675 0.0625 3.375 C-4.00180502 8.54775184 -3.57040909 13.59967443 -3 20 C-0.19790806 26.70065464 2.99262223 27.10701235 10 31 C10 42.22 10 53.44 10 65 C9.34 65 8.68 65 8 65 C8.01683838 64.02651611 8.03367676 63.05303223 8.05102539 62.05004883 C8.10180918 58.42457357 8.09326076 54.80120673 8.06713867 51.17553711 C8.0640637 49.60907976 8.07690372 48.04250473 8.10620117 46.47631836 C8.192888 41.51310333 8.14710058 36.84696589 7 32 C4.81305733 29.75548497 3.13179434 28.86190373 0.18164062 27.86279297 C-2.45821635 26.81878507 -3.19402896 25.75430668 -4.5625 23.3125 C-6.79332159 17.85366928 -7.12689744 12.20691843 -5.1640625 6.62109375 C-2.64201878 1.32100939 -2.64201878 1.32100939 0 0 Z " fill="#8BDA8E" transform="translate(146,235)"/>
<path d="M0 0 C4.14897796 2.3218319 6.15697881 4.57706582 8.30859375 8.79296875 C10.22167331 11.75183713 11.20149563 12.98321958 14.57397461 14.11743164 C17.80951375 14.53227044 20.95758802 14.70218046 24.21875 14.76171875 C25.33636719 14.81650391 26.45398438 14.87128906 27.60546875 14.92773438 C30.35235451 15.05686148 33.0945192 15.14604275 35.84375 15.19921875 C35.84375 15.52921875 35.84375 15.85921875 35.84375 16.19921875 C31.78221834 16.43194563 27.72239757 16.57376186 23.65625 16.69921875 C22.50576172 16.76625 21.35527344 16.83328125 20.16992188 16.90234375 C11.79962062 17.09643769 11.79962062 17.09643769 8.99755859 14.46630859 C7.73373504 12.42274814 6.78543416 10.40498026 5.84375 8.19921875 C2.04178626 3.68438681 -1.18224 2.39025198 -7.03125 1.82421875 C-11.47458606 1.9751245 -14.86320112 3.16461168 -18.15625 6.19921875 C-19.80959246 8.75482774 -21.04973177 11.36763173 -22.15625 14.19921875 C-23.15625 11.19921875 -23.15625 11.19921875 -22.09375 8.32421875 C-17.19068694 0.41605253 -9.04306795 -3.35838574 0 0 Z " fill="#01D0E3" transform="translate(368.15625,217.80078125)"/>
<path d="M0 0 C0 0.66 0 1.32 0 2 C-0.68964844 2.1959375 -1.37929687 2.391875 -2.08984375 2.59375 C-11.83489904 5.69505703 -18.77004337 10.97824122 -23.96875 19.84765625 C-25.13500149 22.28176447 -25.95154143 24.75560148 -26.8125 27.3125 C-28.31131948 31.17756597 -28.61713372 31.79116385 -32.4375 33.875 C-33.95352346 34.2689948 -35.47531767 34.64096962 -37 35 C-39.25080544 35.74757935 -41.50075847 36.49772842 -43.75 37.25 C-50.31279343 39.39612676 -50.31279343 39.39612676 -54 38 C-38.43963554 31.29612756 -38.43963554 31.29612756 -30 31 C-29.938125 30.21625 -29.87625 29.4325 -29.8125 28.625 C-27.60967098 18.7969936 -21.89195437 10.93483286 -14.125 4.6875 C-9.876667 2.39340018 -4.91840701 0 0 0 Z " fill="#9FE489" transform="translate(168,24)"/>
<path d="M0 0 C0.66 0.33 1.32 0.66 2 1 C-7.70617183 15.80191204 -18.51511184 24.7281071 -36.1015625 28.5 C-46.42982456 30.2816948 -46.42982456 30.2816948 -50 30 C-51.64233398 28.48876953 -51.64233398 28.48876953 -53 27 C-52.43603516 26.95512451 -51.87207031 26.91024902 -51.29101562 26.86401367 C-48.69287478 26.65042777 -46.09659654 26.41907848 -43.5 26.1875 C-42.613125 26.11724609 -41.72625 26.04699219 -40.8125 25.97460938 C-28.91145294 24.88076314 -16.23086169 19.95221811 -8 11 C-5.20495642 7.41838664 -2.56729077 3.7475777 0 0 Z " fill="#5CDBCC" transform="translate(215,318)"/>
<path d="M0 0 C0 -1.98 0 -3.96 0 -6 C0.66 -6.33 1.32 -6.66 2 -7 C2 -4.36 2 -1.72 2 1 C-0.28125 1.69921875 -0.28125 1.69921875 -3 2 C-4.78125 0.70703125 -4.78125 0.70703125 -6.5 -1.1875 C-17.36621392 -11.31864266 -33.47830869 -9.6564743 -47.3125 -9.75 C-49.42124793 -9.77820959 -51.52997353 -9.80814383 -53.63867188 -9.83984375 C-58.75907393 -9.91311163 -63.87921238 -9.9630475 -69 -10 C-69 -10.33 -69 -10.66 -69 -11 C-16.23488831 -13.27102587 -16.23488831 -13.27102587 0 0 Z " fill="#00CFE6" transform="translate(396,180)"/>
<path d="M0 0 C2.1953125 1.59765625 2.1953125 1.59765625 3.1953125 3.59765625 C2.55464844 3.36949219 1.91398437 3.14132813 1.25390625 2.90625 C-5.58301227 0.63406993 -10.10352281 0.21879097 -16.9921875 2.78515625 C-20.45666279 5.0178181 -21.88078122 6.95597651 -23.8046875 10.59765625 C-24.07927586 11.96795776 -24.32868203 13.34350922 -24.5546875 14.72265625 C-25.37454766 18.16180427 -25.73429891 18.5451412 -28.7890625 20.82421875 C-35.69958927 23.99786192 -43.8663449 23.01009224 -51.3046875 22.84765625 C-52.90622771 22.82756408 -54.50779221 22.8093181 -56.109375 22.79296875 C-60.00841831 22.74917896 -63.90628216 22.68030346 -67.8046875 22.59765625 C-67.8046875 22.26765625 -67.8046875 21.93765625 -67.8046875 21.59765625 C-66.94302979 21.58307373 -66.08137207 21.56849121 -65.19360352 21.5534668 C-61.95594375 21.49192756 -58.71887822 21.41768842 -55.48168945 21.33520508 C-54.08824388 21.30222317 -52.69467328 21.27411058 -51.30102539 21.2512207 C-39.57130086 21.4591741 -39.57130086 21.4591741 -28.8046875 17.59765625 C-27.64426819 15.36053525 -27.00152638 13.32275591 -26.39453125 10.87890625 C-25.15029085 6.0667447 -22.62867563 3.24998019 -18.8046875 0.22265625 C-13.17216717 -2.69113674 -5.63088726 -2.81544363 0 0 Z " fill="#A8E07A" transform="translate(166.8046875,98.40234375)"/>
<path d="M0 0 C3.52649368 3.16674399 6.80885208 6.49735175 10 10 C9.01 10.33 8.02 10.66 7 11 C6.21625 9.96875 5.4325 8.9375 4.625 7.875 C-2.17190382 0.01409488 -12.8287213 -5.12704817 -23.12988281 -6.22753906 C-31.64284567 -6.80623128 -39.4290387 -6.82288449 -47.15234375 -2.77734375 C-49 -2 -49 -2 -52 -3 C-49.59077099 -4.60615267 -47.7796189 -5.57605601 -45.125 -6.5625 C-44.46757812 -6.81128906 -43.81015625 -7.06007813 -43.1328125 -7.31640625 C-28.6248496 -11.96639436 -12.30068401 -8.65868178 0 0 Z " fill="#8FDC8F" transform="translate(203,19)"/>
<path d="M0 0 C0.33 0 0.66 0 1 0 C1.9747186 10.80854627 -0.89589001 20.12469011 -7.25 28.9375 C-13.84707835 36.68374684 -22.18179203 40.66886124 -32 43 C-34.859375 43.1015625 -34.859375 43.1015625 -37 43 C-36.67 42.34 -36.34 41.68 -36 41 C-34.948125 40.773125 -33.89625 40.54625 -32.8125 40.3125 C-23.87810053 38.23210734 -14.03646391 33.68785014 -8.39453125 26.2890625 C-3.87966974 18.87811335 -1.48808036 11.75600619 -1.140625 3.08203125 C-1 1 -1 1 0 0 Z " fill="#02C9DD" transform="translate(340,291)"/>
<path d="M0 0 C4.66200629 2.58573132 4.66200629 2.58573132 5.95703125 5.17578125 C5.18359375 4.93601563 4.41015625 4.69625 3.61328125 4.44921875 C-3.06261835 2.54890079 -7.55298942 1.44315837 -14.04296875 4.17578125 C-16.93871371 6.55672711 -18.68994696 8.40518226 -20.2512207 11.81323242 C-22.04296875 14.17578125 -22.04296875 14.17578125 -25.13745117 14.7434082 C-26.37857666 14.71722412 -27.61970215 14.69104004 -28.8984375 14.6640625 C-29.56007401 14.65698776 -30.22171051 14.64991302 -30.90339661 14.6426239 C-33.0135786 14.61466632 -35.12109135 14.55193972 -37.23046875 14.48828125 C-38.662071 14.46319949 -40.09371492 14.44038608 -41.52539062 14.41992188 C-45.03211525 14.36483972 -48.53728146 14.27856414 -52.04296875 14.17578125 C-52.04296875 13.84578125 -52.04296875 13.51578125 -52.04296875 13.17578125 C-42.47296875 13.17578125 -32.90296875 13.17578125 -23.04296875 13.17578125 C-22.71296875 11.85578125 -22.38296875 10.53578125 -22.04296875 9.17578125 C-20.59671818 4.69240449 -16.92773239 2.50317862 -13.04296875 0.17578125 C-8.63715031 -1.2928249 -4.34897854 -1.75455922 0 0 Z " fill="#AEE170" transform="translate(129.04296875,166.82421875)"/>
<path d="M0 0 C5.17223681 2.25677974 6.85370559 6.09156149 8.83886719 11.12841797 C11.77452781 20.37258631 11.33340347 29.60467009 11.1875 39.1875 C11.17242146 40.9199102 11.15873868 42.65233314 11.14648438 44.38476562 C11.11373986 48.59016346 11.06213436 52.79493793 11 57 C10.67 57 10.34 57 10 57 C8.73213754 52.16627438 8.93141505 47.45248188 9 42.5 C9.07507874 26.52699887 7.53513204 14.2629285 0 0 Z " fill="#59D1C5" transform="translate(211,30)"/>
<path d="M0 0 C0.66 0.33 1.32 0.66 2 1 C-2.75 5 -2.75 5 -5 5 C-5.26167969 5.60457031 -5.52335937 6.20914062 -5.79296875 6.83203125 C-7.08227606 9.14777739 -8.20214333 10.12929873 -10.3125 11.6875 C-15.30177505 15.774349 -17.63987247 21.15609698 -20.375 26.875 C-22.74407202 29.97301726 -25.34653052 30.82567052 -29 32 C-29.99 31.67 -30.98 31.34 -32 31 C-31.39671875 30.731875 -30.7934375 30.46375 -30.171875 30.1875 C-24.88774145 27.59657 -22.39112344 25.71369626 -20.140625 20.3125 C-15.97160673 11.86024378 -8.44472955 4.22236478 0 0 Z " fill="#ACE97E" transform="translate(150,16)"/>
<path d="M0 0 C5.22974539 0.65822657 7.2768929 2.6427538 10.5390625 6.6171875 C13.00130129 10.63313847 13.37268351 14.36047058 13 19 C11.38351154 25.35818794 7.37930069 29.43187515 2 33 C1.01 33 0.02 33 -1 33 C-1.33 35.31 -1.66 37.62 -2 40 C-2.33 40 -2.66 40 -3 40 C-3 37.36 -3 34.72 -3 32 C-2.46890625 31.76925781 -1.9378125 31.53851563 -1.390625 31.30078125 C3.1373727 29.21030056 6.4988382 27.50209123 9 23 C10.29863293 17.5271898 10.04941031 12.48025383 9 7 C8.34 7 7.68 7 7 7 C5.29115995 5.37660195 3.62553283 3.70680947 2 2 C1.34 1.34 0.68 0.68 0 0 Z " fill="#7FE4B0" transform="translate(163,233)"/>
<path d="M0 0 C1.60379341 -0.05416188 3.20811406 -0.09286638 4.8125 -0.125 C5.70582031 -0.14820312 6.59914062 -0.17140625 7.51953125 -0.1953125 C10 0 10 0 13 2 C14.07917226 5.23751678 14.11425601 7.57751771 14.09765625 10.98046875 C14.09443359 12.14384766 14.09121094 13.30722656 14.08789062 14.50585938 C14.07951172 15.72080078 14.07113281 16.93574219 14.0625 18.1875 C14.05798828 19.41404297 14.05347656 20.64058594 14.04882812 21.90429688 C14.03703065 24.93624668 14.02056921 27.96809906 14 31 C13.67 31 13.34 31 13 31 C12.67 29.02 12.34 27.04 12 25 C11.67 25 11.34 25 11 25 C11 17.74 11 10.48 11 3 C7.37 2.34 3.74 1.68 0 1 C0 0.67 0 0.34 0 0 Z " fill="#5FCEB7" transform="translate(196,115)"/>
<path d="M0 0 C0.33 0 0.66 0 1 0 C1.3125 2.1875 1.3125 2.1875 1 5 C-1.3125 7.625 -1.3125 7.625 -4 10 C-4.53625 10.5775 -5.0725 11.155 -5.625 11.75 C-8.49562047 14.35965497 -11.76502102 14.16258495 -15.4375 14.1875 C-16.85869141 14.20876953 -16.85869141 14.20876953 -18.30859375 14.23046875 C-21.06916695 13.99407714 -22.60257543 13.30863786 -25 12 C-29.13076796 12.35406583 -33.02810326 13.99295833 -36.9140625 15.37890625 C-39 16 -39 16 -42 16 C-42 15.34 -42 14.68 -42 14 C-29.91939095 9.37841469 -29.91939095 9.37841469 -25 9 C-24.34 9.33 -23.68 9.66 -23 10 C-23 10.66 -23 11.32 -23 12 C-21.27119018 12.05449838 -19.54187288 12.09301688 -17.8125 12.125 C-16.36810547 12.15980469 -16.36810547 12.15980469 -14.89453125 12.1953125 C-10.09891621 11.87172174 -7.26099501 10.41628049 -4 7 C-3.34 7 -2.68 7 -2 7 C-1.34 4.69 -0.68 2.38 0 0 Z " fill="#A0E88C" transform="translate(174,118)"/>
<path d="M0 0 C0.77649902 0.00410889 1.55299805 0.00821777 2.35302734 0.01245117 C3.64273438 0.01535156 3.64273438 0.01535156 4.95849609 0.01831055 C5.85955078 0.03055664 6.76060547 0.04280273 7.68896484 0.05541992 C8.56681641 0.05606445 9.44466797 0.05670898 10.34912109 0.05737305 C15.67031422 0.09295309 20.79856297 0.47581592 26.06396484 1.24291992 C24.06396484 3.24291992 24.06396484 3.24291992 21.45019531 3.4699707 C20.37141113 3.45949707 19.29262695 3.44902344 18.18115234 3.43823242 C17.01455078 3.43178711 15.84794922 3.4253418 14.64599609 3.41870117 C13.42267578 3.40194336 12.19935547 3.38518555 10.93896484 3.36791992 C9.70791016 3.35889648 8.47685547 3.34987305 7.20849609 3.34057617 C4.1601267 3.3169454 1.11214102 3.28400046 -1.93603516 3.24291992 C-2.26603516 3.90291992 -2.59603516 4.56291992 -2.93603516 5.24291992 C-3.26603516 4.25291992 -3.59603516 3.26291992 -3.93603516 2.24291992 C-1.93603516 0.24291992 -1.93603516 0.24291992 0 0 Z " fill="#7DC896" transform="translate(177.93603515625,114.757080078125)"/>
<path d="M0 0 C5.22321429 4.82142857 5.22321429 4.82142857 6 9 C7.21115479 8.98428955 7.21115479 8.98428955 8.44677734 8.96826172 C12.08948682 8.92680169 15.73214675 8.90070562 19.375 8.875 C21.28152344 8.84986328 21.28152344 8.84986328 23.2265625 8.82421875 C24.43828125 8.81777344 25.65 8.81132813 26.8984375 8.8046875 C28.01911621 8.79421387 29.13979492 8.78374023 30.29443359 8.77294922 C33 9 33 9 35 11 C25.1 11 15.2 11 5 11 C1 3 1 3 0 0 Z " fill="#8AE2A0" transform="translate(170,102)"/>
<path d="M0 0 C2 1 2 1 3 2 C5.60833122 2.21220322 8.19975832 2.37656339 10.8125 2.5 C19.57252832 2.92048136 19.57252832 2.92048136 23 4 C23 4.66 23 5.32 23 6 C13.62122392 6.1598655 4.34809779 5.66433182 -5 5 C-5 4.34 -5 3.68 -5 3 C-3.35 2.67 -1.7 2.34 0 2 C0 1.34 0 0.68 0 0 Z " fill="#B5DE70" transform="translate(57,182)"/>
<path d="M0 0 C0.66 0.33 1.32 0.66 2 1 C1.360625 1.78375 0.72125 2.5675 0.0625 3.375 C-3.99598527 8.54034488 -3.58577275 13.6067088 -3 20 C-0.55705297 25.47220135 2.83227208 27.41613604 8 30 C6.375 30.75 6.375 30.75 4 31 C-0.74710604 28.72534502 -3.22213102 25.98106518 -5.3046875 21.2734375 C-7.10574763 15.38457798 -6.76607842 9.98773623 -4.125 4.4375 C-2.35359116 1.17679558 -2.35359116 1.17679558 0 0 Z " fill="#94E38E" transform="translate(146,235)"/>
<path d="M0 0 C0.66 0 1.32 0 2 0 C1.0500889 2.77057404 0.1215461 4.85240831 -1.75 7.125 C-7.08444336 13.94123318 -10.66400908 22.05249223 -14 30 C-14.66 30 -15.32 30 -16 30 C-12.68794435 18.85210538 -7.63472386 8.8650436 0 0 Z " fill="#C0ED74" transform="translate(83,69)"/>
<path d="M0 0 C3.25 -0.0625 3.25 -0.0625 7 1 C8.38478504 3.15955223 9.20635892 5.30135178 10.08984375 7.70703125 C11.23374448 10.58887558 13.0069363 12.65103207 15 15 C15 15.66 15 16.32 15 17 C16.15628906 17.29003906 16.15628906 17.29003906 17.3359375 17.5859375 C18.33882812 17.84632813 19.34171875 18.10671875 20.375 18.375 C21.87160156 18.75785156 21.87160156 18.75785156 23.3984375 19.1484375 C26 20 26 20 28 22 C20.79372881 21.61394976 15.44589442 19.74250305 10.45703125 14.32421875 C7.77612069 10.77849834 6.16034587 7.32492553 5 3 C2.03 2.505 2.03 2.505 -1 2 C-0.67 1.34 -0.34 0.68 0 0 Z " fill="#96E191" transform="translate(136,325)"/>
<path d="M0 0 C0.33 0 0.66 0 1 0 C3.12499369 13.22218295 1.59870467 25.50863474 -3 38 C-3.99 38 -4.98 38 -6 38 C-5.566875 36.9790625 -5.566875 36.9790625 -5.125 35.9375 C-2.13777182 28.13751531 -1.4285294 20.87905232 -0.875 12.5625 C-0.78863281 11.35400391 -0.70226562 10.14550781 -0.61328125 8.90039062 C-0.40223321 5.93399322 -0.19801043 2.9672914 0 0 Z " fill="#53D8D0" transform="translate(221,280)"/>
<path d="M0 0 C1.010625 -0.00773437 2.02125 -0.01546875 3.0625 -0.0234375 C6.40011386 0.42927076 8.29729937 1.39623704 11 3.375 C11.33 4.035 11.66 4.695 12 5.375 C11.03900391 5.03275391 11.03900391 5.03275391 10.05859375 4.68359375 C3.22167523 2.41141368 -1.29883531 1.99613472 -8.1875 4.5625 C-11.54590925 6.72680819 -13.00074081 8.94769853 -15 12.375 C-15.66 13.365 -16.32 14.355 -17 15.375 C-16.75331325 11.18132522 -16.44696258 8.9212876 -13.75 5.625 C-9.14276888 1.85544726 -6.05665799 -0.04635197 0 0 Z " fill="#A8E78B" transform="translate(158,96.625)"/>
<path d="M0 0 C11.62924995 0.43883962 19.43566957 6.83730011 27.19921875 15.0234375 C27.79347656 15.67570312 28.38773438 16.32796875 29 17 C28.01 17.33 27.02 17.66 26 18 C25.21625 16.96875 24.4325 15.9375 23.625 14.875 C17.44026683 7.68851428 8.74149972 4.16181905 0 1 C0 0.67 0 0.34 0 0 Z " fill="#78E2B1" transform="translate(184,12)"/>
<path d="M0 0 C3.32564482 1.18006752 6.31568422 2.70127293 9.375 4.4375 C16.65942967 8.52301072 23.93736672 10.94424721 32 13 C32 13.33 32 13.66 32 14 C20.33715043 13.94625415 9.34868069 8.7310501 0 2 C0 1.34 0 0.68 0 0 Z " fill="#AAED8B" transform="translate(104,312)"/>
<path d="M0 0 C6.73713758 2.82019713 9.74561706 6.49123411 13 13 C16.3 13 19.6 13 23 13 C22.67 13.99 22.34 14.98 22 16 C18.62172462 16.28522025 15.36969321 16.4314518 12 16 C10.125 13.875 10.125 13.875 9 11 C6.40314587 6.67190979 4.39355778 4.44086543 0 2 C0 1.34 0 0.68 0 0 Z " fill="#04BED0" transform="translate(310,86)"/>
<path d="M0 0 C0.33 0 0.66 0 1 0 C1.125 2.375 1.125 2.375 1 5 C-2.24089643 8.24089643 -6.5515765 8.89896214 -10.875 10.1875 C-11.78636719 10.47302734 -12.69773437 10.75855469 -13.63671875 11.05273438 C-14.95736328 11.45008789 -14.95736328 11.45008789 -16.3046875 11.85546875 C-17.10890137 12.09934326 -17.91311523 12.34321777 -18.74169922 12.59448242 C-21.18274744 13.03281551 -22.66940654 12.78053209 -25 12 C-9.43963554 5.29612756 -9.43963554 5.29612756 -1 5 C-0.67 3.35 -0.34 1.7 0 0 Z " fill="#ACE67E" transform="translate(139,50)"/>
<path d="M0 0 C2 2 2 2 3 5 C4.9343226 5.43355507 6.86884512 5.86625081 8.8046875 6.29296875 C13.48430058 7.80010392 16.79610722 11.02547379 19.32421875 15.171875 C20.28832575 17.079792 21.15384595 19.03692259 22 21 C21.34 21.99 20.68 22.98 20 24 C19.608125 22.783125 19.21625 21.56625 18.8125 20.3125 C16.58163557 14.38447528 12.62400767 10.81200383 7 8 C4.68308546 7.27833809 2.35151077 6.59940471 0 6 C0 4.02 0 2.04 0 0 Z " fill="#7EE3B6" transform="translate(160,300)"/>
<path d="M0 0 C0.33 0.99 0.66 1.98 1 3 C-15.31573642 7.5274033 -15.31573642 7.5274033 -22 7 C-23.64233398 5.48876953 -23.64233398 5.48876953 -25 4 C-24.42032471 3.9498877 -23.84064941 3.89977539 -23.2434082 3.84814453 C-20.59900423 3.61502466 -17.95581713 3.37012422 -15.3125 3.125 C-13.94448242 3.00705078 -13.94448242 3.00705078 -12.54882812 2.88671875 C-8.04971897 2.46134843 -4.10288408 2.05576087 0 0 Z " fill="#78DEB0" transform="translate(187,341)"/>
<path d="M0 0 C2.47323639 3.70985459 3.07222272 7.18905848 4.0234375 11.50390625 C4.7670648 14.11298793 4.7670648 14.11298793 6.9296875 15.26953125 C7.95449219 15.63111328 7.95449219 15.63111328 9 16 C9.9075 16.37125 10.815 16.7425 11.75 17.125 C15.69018773 18.18581977 18.93077119 18.14031823 23 18 C23 18.66 23 19.32 23 20 C16.50710591 20.53709602 11.10447964 20.67057058 5.66015625 16.7578125 C1.92252035 12.80031566 0.08591585 7.57747541 -0.09375 2.1875 C-0.0628125 1.465625 -0.031875 0.74375 0 0 Z " fill="#02CEDF" transform="translate(344,232)"/>
<path d="M0 0 C3.82726227 3.2233872 5.25019073 6.64933264 6.6875 11.3125 C6.89955078 11.95123047 7.11160156 12.58996094 7.33007812 13.24804688 C8.69676165 17.50330442 9.48002298 21.58305239 10 26 C9.34 26.33 8.68 26.66 8 27 C7.63648438 25.54980469 7.63648438 25.54980469 7.265625 24.0703125 C5.48960536 17.12614719 3.60493119 10.44670739 0.734375 3.85546875 C0 2 0 2 0 0 Z " fill="#01C8DD" transform="translate(402,192)"/>
<path d="M0 0 C6.60035738 4.75225731 10.45274723 10.22212894 13 18 C13.17273446 21.4910543 12.82510623 24.6095635 12 28 C11.67 28 11.34 28 11 28 C10.91363281 27.24976562 10.82726562 26.49953125 10.73828125 25.7265625 C9.47475586 16.52253355 7.1438144 8.35005724 0 2 C0 1.34 0 0.68 0 0 Z " fill="#6FDEBC" transform="translate(196,32)"/>
<path d="M0 0 C0.33 0 0.66 0 1 0 C1.55635309 9.99890143 0.5523964 16.67140539 -5 25 C-5.99 24.67 -6.98 24.34 -8 24 C-7.401875 23.4225 -6.80375 22.845 -6.1875 22.25 C-1.86617705 15.82974876 -0.86413254 7.60436639 0 0 Z " fill="#62DBCB" transform="translate(208,292)"/>
<path d="M0 0 C4.25563553 0.51309081 6.50480225 2.97112916 9.5625 5.8125 C10.98755859 7.12154297 10.98755859 7.12154297 12.44140625 8.45703125 C16.55273196 12.54324963 16.55273196 12.54324963 18 15 C17.67 15.99 17.34 16.98 17 18 C15.99406757 16.8803014 14.9954151 15.7540588 14 14.625 C13.1646875 13.68527344 13.1646875 13.68527344 12.3125 12.7265625 C11 11 11 11 11 9 C10.1028125 8.566875 10.1028125 8.566875 9.1875 8.125 C7 7 7 7 4 5 C4 4.34 4 3.68 4 3 C2.68 2.34 1.36 1.68 0 1 C0 0.67 0 0.34 0 0 Z " fill="#01C9E1" transform="translate(377,112)"/>
<path d="M0 0 C0.33 1.32 0.66 2.64 1 4 C-2.56045177 5.18681726 -5.43808337 5.09689832 -9.1875 5.0625 C-10.45980469 5.05347656 -11.73210937 5.04445313 -13.04296875 5.03515625 C-14.50669922 5.01775391 -14.50669922 5.01775391 -16 5 C-16.33 4.01 -16.66 3.02 -17 2 C-11.72 2.33 -6.44 2.66 -1 3 C-0.67 2.01 -0.34 1.02 0 0 Z " fill="#02BFD6" transform="translate(354,97)"/>
<path d="M0 0 C3.88798161 3.54356075 6.16343678 6.77014455 8.3125 11.5625 C8.82425781 12.67753906 9.33601563 13.79257813 9.86328125 14.94140625 C11 18 11 18 11 22 C10.34 22 9.68 22 9 22 C8.68546875 21.14277344 8.3709375 20.28554687 8.046875 19.40234375 C5.75065507 13.2675634 3.36632505 7.61054175 0 2 C0 1.34 0 0.68 0 0 Z " fill="#00C9E0" transform="translate(386,129)"/>
<path d="M0 0 C3.10347722 1.14943601 4.26941338 2.32467766 6.4375 4.9375 C8.88226576 7.85929322 10.77021132 9.13012234 14 11 C15.8125 13.1875 15.8125 13.1875 17 15 C12.07839817 15 9.39928652 11.30966315 6 8 C0 1.57052632 0 1.57052632 0 0 Z " fill="#ADE47A" transform="translate(88,297)"/>
<path d="M0 0 C0.66 0 1.32 0 2 0 C0.70021649 7.79870106 -2.26646758 14.06126522 -6 21 C-6.66 21 -7.32 21 -8 21 C-7.73445313 20.34644531 -7.46890625 19.69289063 -7.1953125 19.01953125 C-5.70697928 15.25978753 -4.2899438 11.47535194 -2.875 7.6875 C-2.59785156 6.94693359 -2.32070313 6.20636719 -2.03515625 5.44335938 C-1.35626973 3.62909368 -0.67806589 1.81457256 0 0 Z " fill="#01C9DD" transform="translate(409,245)"/>
<path d="M0 0 C7.73351323 5.99741842 14.07849175 13.17895784 16 23 C13.61026109 20.82253016 12.24481969 18.76032269 10.8125 15.875 C8.33665335 11.23468619 5.19236668 7.63968929 1.57421875 3.84765625 C0 2 0 2 0 0 Z " fill="#01CEE4" transform="translate(333,58)"/>
<path d="M0 0 C3.20864069 1.10297024 5.92168162 2.53659305 8.75 4.375 C12.966834 7.08697148 17.37637384 9.08419194 22 11 C22 11.33 22 11.66 22 12 C13.17697101 11.43682794 6.38109714 6.89024351 0 1 C0 0.67 0 0.34 0 0 Z " fill="#AEEC88" transform="translate(108,298)"/>
<path d="M0 0 C3.28685665 1.3323396 6.35756192 2.71512384 8 6 C7.21496094 5.79503906 6.42992187 5.59007812 5.62109375 5.37890625 C0.08982255 3.96045756 -5.32370402 2.64503363 -11 2 C-7.28181579 -0.47878947 -4.3098993 -0.66184925 0 0 Z " fill="#A2E780" transform="translate(127,166)"/>
<path d="M0 0 C0.33 0 0.66 0 1 0 C1 10.23 1 20.46 1 31 C0.67 31 0.34 31 0 31 C-0.144375 29.906875 -0.28875 28.81375 -0.4375 27.6875 C-0.88288104 24.06877013 -0.88288104 24.06877013 -2 21 C-1.68986085 19.32886189 -1.35095968 17.66304425 -1 16 C-0.73777035 13.23344168 -0.58875084 10.462085 -0.4375 7.6875 C-0.39431641 6.94693359 -0.35113281 6.20636719 -0.30664062 5.44335938 C-0.20129568 3.62908536 -0.10021684 1.8145645 0 0 Z " fill="#4CC1BB" transform="translate(222,71)"/>
<path d="M0 0 C0.99 0.33 1.98 0.66 3 1 C-0.14950551 7.15585167 -4.5662829 9.66322539 -11 12 C-14.625 12.3125 -14.625 12.3125 -17 12 C-16.67 11.34 -16.34 10.68 -16 10 C-14.109375 9.5078125 -14.109375 9.5078125 -11.75 9.125 C-7.5660077 8.27356755 -5.03864428 7.1307244 -2 4 C-0.68834743 1.88339573 -0.68834743 1.88339573 0 0 Z " fill="#A0E58A" transform="translate(137,190)"/>
<path d="M0 0 C0.66 0.33 1.32 0.66 2 1 C-2.75 5 -2.75 5 -5 5 C-5.226875 5.5775 -5.45375 6.155 -5.6875 6.75 C-7.33038023 9.5663661 -9.39533227 11.08077114 -12 13 C-12.33 12.01 -12.66 11.02 -13 10 C-11.21024844 8.51851668 -9.41813943 7.03988094 -7.625 5.5625 C-6.62726563 4.73878906 -5.62953125 3.91507813 -4.6015625 3.06640625 C-2 1 -2 1 0 0 Z " fill="#9DE080" transform="translate(150,16)"/>
<path d="M0 0 C0.77085938 -0.00257813 1.54171875 -0.00515625 2.3359375 -0.0078125 C4.5578189 0.12110212 6.49118508 0.51116283 8.625 1.125 C8.625 1.785 8.625 2.445 8.625 3.125 C6.68780622 3.17906122 4.75018079 3.21782025 2.8125 3.25 C1.73355469 3.27320313 0.65460938 3.29640625 -0.45703125 3.3203125 C-3.375 3.125 -3.375 3.125 -6.375 1.125 C-4.03562093 -0.04468953 -2.60130632 -0.00864221 0 0 Z " fill="#AAD36E" transform="translate(71.375,184.875)"/>
<path d="M0 0 C3.77391227 1.21304323 5.2842553 3.49355123 7.1171875 6.9140625 C8.62781861 10.48342982 9.34395813 14.19323074 10 18 C9.34 18 8.68 18 8 18 C7.67386719 17.20335938 7.34773437 16.40671875 7.01171875 15.5859375 C4.83151782 10.29943258 2.67011492 5.05916511 0 0 Z " fill="#62DBC8" transform="translate(211,30)"/>
<path d="M0 0 C0.66 0.33 1.32 0.66 2 1 C-1.47648482 6.07911967 -4.51510942 10.07472502 -10 13 C-10.99 13 -11.98 13 -13 13 C-13 12.34 -13 11.68 -13 11 C-12.48050781 10.79246094 -11.96101563 10.58492187 -11.42578125 10.37109375 C-5.77505683 7.87474784 -3.23081438 5.25007336 0 0 Z " fill="#02D1E1" transform="translate(321,107)"/>
<path d="M0 0 C0.33 0 0.66 0 1 0 C1 2.64 1 5.28 1 8 C-1.125 8.8125 -1.125 8.8125 -4 9 C-6.30107561 7.55576519 -8.01646386 5.89127865 -10 4 C-9.34 3.34 -8.68 2.68 -8 2 C-5.69 3.65 -3.38 5.3 -1 7 C-1.020625 6.030625 -1.04125 5.06125 -1.0625 4.0625 C-1 1 -1 1 0 0 Z " fill="#02C4D9" transform="translate(397,173)"/>
<path d="M0 0 C0.66 0 1.32 0 2 0 C5 4.38461538 5 4.38461538 5 7 C7.64 7 10.28 7 13 7 C12.67 7.66 12.34 8.32 12 9 C5.58501441 9.36311239 5.58501441 9.36311239 3.1875 7.875 C1.60730475 5.37995487 0.81650319 2.82635719 0 0 Z " fill="#A1EA8E" transform="translate(135,172)"/>
<path d="M0 0 C1.14077657 3.42232972 1.09815117 6.08673217 1.0625 9.6875 C1.05347656 10.86699219 1.04445312 12.04648438 1.03515625 13.26171875 C1.02355469 14.16535156 1.01195312 15.06898438 1 16 C0.01 15.34 -0.98 14.68 -2 14 C-2.29296875 11.1796875 -2.29296875 11.1796875 -2.1875 7.875 C-2.16042969 6.77929688 -2.13335937 5.68359375 -2.10546875 4.5546875 C-2.07066406 3.71164063 -2.03585938 2.86859375 -2 2 C-1.34 2 -0.68 2 0 2 C0 1.34 0 0.68 0 0 Z " fill="#B0E86C" transform="translate(38,185)"/>
<path d="M0 0 C0.99 0.33 1.98 0.66 3 1 C1.61019248 2.13243576 0.21285323 3.25563119 -1.1875 4.375 C-1.96480469 5.00148438 -2.74210937 5.62796875 -3.54296875 6.2734375 C-5.96879382 7.97807134 -8.21309045 9.01987906 -11 10 C-9.78389183 6.35167549 -8.68563692 5.88114477 -5.5 3.875 C-2.5968522 2.13228203 -2.5968522 2.13228203 0 0 Z " fill="#01C7DC" transform="translate(382,275)"/>
<path d="M0 0 C5.21852881 2.18450043 7.73665805 4.52455961 11 9 C11.33 9.99 11.66 10.98 12 12 C11.01 12.495 11.01 12.495 10 13 C9.69707031 12.45730469 9.39414062 11.91460937 9.08203125 11.35546875 C6.51567876 6.97292835 4.62390958 4.37801064 0 2 C0 1.34 0 0.68 0 0 Z " fill="#02CEE0" transform="translate(310,86)"/>
<path d="M0 0 C2 1 2 1 3.0703125 3.94140625 C3.41835937 5.13636719 3.76640625 6.33132813 4.125 7.5625 C4.47820312 8.76003906 4.83140625 9.95757812 5.1953125 11.19140625 C5.46085937 12.11824219 5.72640625 13.04507812 6 14 C3 13 3 13 2.05078125 11.328125 C0.66829057 7.43666975 -0.39357798 4.19816517 0 0 Z " fill="#BEF174" transform="translate(86,260)"/>
<path d="M0 0 C0.33 0 0.66 0 1 0 C1 2.31 1 4.62 1 7 C2.98 6.34 4.96 5.68 7 5 C7.33 5.66 7.66 6.32 8 7 C3.56923077 9.09230769 3.56923077 9.09230769 0.6875 8.625 C0.130625 8.41875 -0.42625 8.2125 -1 8 C-1.125 2.25 -1.125 2.25 0 0 Z " fill="#73D8B4" transform="translate(181,322)"/>
<path d="M0 0 C1.60463449 0.31008884 3.20869231 0.62316287 4.8125 0.9375 C5.70582031 1.11152344 6.59914063 1.28554688 7.51953125 1.46484375 C10 2 10 2 13 3 C13 3.66 13 4.32 13 5 C11.20767663 4.69128878 9.41615679 4.37790936 7.625 4.0625 C6.62726563 3.88847656 5.62953125 3.71445312 4.6015625 3.53515625 C2 3 2 3 0 2 C0 1.34 0 0.68 0 0 Z " fill="#04C6DA" transform="translate(289,24)"/>
<path d="M0 0 C0.66 0.66 1.32 1.32 2 2 C0.56988027 2.86646667 -0.86940619 3.71781829 -2.3125 4.5625 C-3.51326172 5.27599609 -3.51326172 5.27599609 -4.73828125 6.00390625 C-7 7 -7 7 -10 6 C-6.87567603 3.47650757 -3.61939504 1.72743854 0 0 Z " fill="#6CDFC6" transform="translate(198,336)"/>
<path d="M0 0 C1.258125 -0.04125 2.51625 -0.0825 3.8125 -0.125 C4.52019531 -0.14820313 5.22789062 -0.17140625 5.95703125 -0.1953125 C8 0 8 0 11 2 C10.67 2.99 10.34 3.98 10 5 C9.34 4.34 8.68 3.68 8 3 C5.34462628 2.43479997 2.70855287 2.26211802 0 2 C0 1.34 0 0.68 0 0 Z " fill="#74E4BF" transform="translate(196,184)"/>
<path d="M0 0 C0.66 0.33 1.32 0.66 2 1 C-0.64 3.97 -3.28 6.94 -6 10 C-6 6.41087588 -5.33563446 5.89142971 -3 3.3125 C-2.443125 2.68988281 -1.88625 2.06726563 -1.3125 1.42578125 C-0.879375 0.95527344 -0.44625 0.48476563 0 0 Z " fill="#02C1D5" transform="translate(393,264)"/>
<path d="M0 0 C2 2 2 2 3 5 C5.97 5.495 5.97 5.495 9 6 C9 6.66 9 7.32 9 8 C1.125 7.125 1.125 7.125 0 6 C-0.04080783 4.00041636 -0.04254356 1.99954746 0 0 Z " fill="#96EEAC" transform="translate(160,300)"/>
<path d="M0 0 C4.455 2.97 4.455 2.97 9 6 C8.67 6.66 8.34 7.32 8 8 C5.03 6.02 2.06 4.04 -1 2 C-0.67 1.34 -0.34 0.68 0 0 Z " fill="#CAF06B" transform="translate(58,242)"/>
<path d="M0 0 C1.60379341 -0.05416188 3.20811406 -0.09286638 4.8125 -0.125 C5.70582031 -0.14820312 6.59914062 -0.17140625 7.51953125 -0.1953125 C10 0 10 0 13 2 C12.67 2.99 12.34 3.98 12 5 C11.67 4.34 11.34 3.68 11 3 C8.42048126 2.30906104 8.42048126 2.30906104 5.4375 1.875 C4.42558594 1.70742187 3.41367188 1.53984375 2.37109375 1.3671875 C1.58863281 1.24601562 0.80617187 1.12484375 0 1 C0 0.67 0 0.34 0 0 Z " fill="#71D8B3" transform="translate(196,115)"/>
<path d="M0 0 C2.31 0 4.62 0 7 0 C7 0.99 7 1.98 7 3 C4.36 3 1.72 3 -1 3 C-0.67 2.01 -0.34 1.02 0 0 Z " fill="#A6D678" transform="translate(99,185)"/>
<path d="M0 0 C0.66 0 1.32 0 2 0 C1.34 1.32 0.68 2.64 0 4 C-2.97 3.67 -5.94 3.34 -9 3 C-9 2.67 -9 2.34 -9 2 C-6.94921875 1.77213542 -4.8984375 1.54427083 -2.84765625 1.31640625 C-0.98859771 1.18113386 -0.98859771 1.18113386 0 0 Z " fill="#5FD0B1" transform="translate(206,176)"/>
<path d="M0 0 C0.8353125 0.37125 0.8353125 0.37125 1.6875 0.75 C-1.125 2.8125 -1.125 2.8125 -4.3125 4.75 C-5.3025 4.42 -6.2925 4.09 -7.3125 3.75 C-2.88173077 -0.31153846 -2.88173077 -0.31153846 0 0 Z " fill="#BFEF6D" transform="translate(114.3125,63.25)"/>
</svg>
